<?xml version="1.0" encoding="utf-8"?>
<!-- Generator: Adobe Illustrator 23.0.0, SVG Export Plug-In . SVG Version: 6.00 Build 0)  -->
<svg version="1.1" id="Ebene_1" xmlns="http://www.w3.org/2000/svg" xmlns:xlink="http://www.w3.org/1999/xlink" x="0px" y="0px"
	 viewBox="0 0 32 32" style="enable-background:new 0 0 32 32;" xml:space="preserve">
<style type="text/css">
	.st0{fill:#FFFFFF;}
</style>
<g id="Guides">
</g>
<g id="Mail">
</g>
<g id="Cloud">
</g>
<g id="Home">
</g>
<g id="Back">
</g>
<g id="Next">
</g>
<g id="Reload">
</g>
<g id="Buble">
</g>
<g id="Accept">
	<path class="st0" d="M16,4C9.4,4,4,9.4,4,16s5.4,12,12,12c6.6,0,12-5.4,12-12S22.6,4,16,4z M16,26c-5.5,0-10-4.5-10-10S10.5,6,16,6
		c5.5,0,10,4.5,10,10S21.5,26,16,26z M21.2,12.3c0.4,0.4,0.4,1,0,1.4l-6.8,6.8l-3.7-4.9c-0.3-0.4-0.2-1.1,0.2-1.4
		c0.4-0.3,1.1-0.2,1.4,0.2l2.3,3.1l5.2-5.2C20.2,11.9,20.8,11.9,21.2,12.3z"/>
</g>
<g id="Reject">
</g>
<g id="User">
</g>
<g id="Download">
</g>
<g id="Upload">
</g>
<g id="Camera">
</g>
<g id="Notification">
</g>
<g id="About">
</g>
<g id="Search">
</g>
<g id="Cart">
</g>
<g id="Sound">
</g>
<g id="List">
</g>
<g id="Settings">
</g>
</svg>
