<?xml version="1.0" ?><svg id="Layer_1" style="enable-background:new 0 0 52 52;" version="1.1" viewBox="0 0 52 52" xml:space="preserve" xmlns="http://www.w3.org/2000/svg" xmlns:xlink="http://www.w3.org/1999/xlink"><style type="text/css">
	.st0{fill:#231F20;}
</style><g><g><path class="st0" d="M24.9118023,22.6904831c-2.8524075-6.1543751,3.1557331-12.4178905,7.3252544-16.4293156    c4.3392906-4.1747608,11.2432518-5.1688194,15.1788979,0.4718976c4.2877312,6.1453362-1.0901985,12.0005569-5.3876305,15.8951645    c-1.9116898,1.7324963-4.1999855,4.3678532-6.7192955,5.1071796c-2.5333328,0.7434406-5.3383484,0.1361885-7.7109756-0.8124332    c-0.6390228-0.2554951-1.4965019,0.4043922-1.4240704,1.0848141c0.2135201,2.0057545,0.8831367,4.515667,0.5486183,6.520031    c-0.6083374,3.6450119-3.0994911,5.9453278-5.5153389,8.4011421c-1.5835514,1.6097488-3.1449547,3.71035-4.9618244,5.0439072    c-3.5821171,2.6292267-8.9663353,0.9399681-11.4736004-2.4449043C0.5124167,39.7776337,5.2916718,33.945858,9.2055445,29.627882    c1.6829348-1.8566971,3.2925749-3.8309269,5.5069504-5.0559807c2.8763037-1.5912495,6.0274477-1.1677246,9.2562132-0.9052124    c1.4432983,0.1173458,1.435585-2.1332817,0-2.25c-3.373661-0.2742939-7.3112793-0.8366241-10.3750534,0.9255905    c-3.2990322,1.8975296-6.1824942,5.6991844-8.5512447,8.6344032c-3.9507933,4.8955936-6.3141723,11.3235607-1.5715668,16.5924778    c3.956135,4.3951645,10.7217579,5.6096649,14.985815,1.364212c2.9480667-2.9352074,6.7610378-5.9400978,9.0081558-9.4442215    c2.2372646-3.4887619,1.3733959-7.5902157,0.9591694-11.4813614c-0.4746895,0.3616047-0.949379,0.7232094-1.4240685,1.0848122    c8.3043919,3.3202591,13.2979832-1.6341972,19.0444393-7.0711079c4.7334099-4.4784355,7.651989-12.6919365,2.069767-17.6661263    c-5.476799-4.880249-11.2989731-5.4532099-16.8338623-0.2890224c-5.4585056,5.0929179-12.0000591,11.800787-8.3112659,19.7597561    C23.5772705,25.138525,25.5173454,23.9970112,24.9118023,22.6904831L24.9118023,22.6904831z"/></g><g><path class="st0" d="M27.6605988,21.7312756c-0.7315063,1.1131172-2.0501709,1.8928185-3.0599117,2.7361641    c-1.1830139,0.9880619-2.33424,2.0122547-3.4630833,3.061636c-1.0628223,0.9880104,0.5310078,2.5763607,1.5909901,1.5909901    c1.2543068-1.1660137,2.5369987-2.3000107,3.8583546-3.3896809c1.084425-0.8942833,2.2344475-1.673521,3.0164585-2.8634911    C30.4009361,21.6533089,28.4534245,20.5248489,27.6605988,21.7312756L27.6605988,21.7312756z"/></g></g></svg>