<?xml version="1.0" ?><svg id="Layer_1" style="enable-background:new 0 0 52 52;" version="1.1" viewBox="0 0 52 52" xml:space="preserve" xmlns="http://www.w3.org/2000/svg" xmlns:xlink="http://www.w3.org/1999/xlink"><style type="text/css">
	.st0{fill:#231F20;}
</style><g><g><path class="st0" d="M44.4257813,3.1391795c7.3361626,1.9750006,1.2412796,8.920063-0.2649803,13.200613    c-0.9552498,2.7146683-1.4633865,5.5026913-3.3452606,7.7374973c-1.8084221,2.1475697-4.3857651,3.7911282-6.5779495,5.5299683    c0.6401634,0.2651653,1.2803307,0.5303307,1.9204941,0.795496c-0.3546524-2.701355-1.0262527-5.5678234-0.4960022-8.2423306    c0.3740654-1.886713,1.3359795-3.8210468,1.9576111-5.6406536c0.7227631-2.1156425,1.2692528-4.294549,1.9985275-6.4036531    c0.2869682-0.8299398,3.7210121-7.9819088,5.0294456-7.3801689c1.3065071,0.6008551,2.4510384-1.3378534,1.1356163-1.9428091    c-3.7171822-1.7095115-7.1456413,5.3912773-8.1050148,8.0547943c-1.3713684,3.8073416-3.0154495,7.924818-4.095417,11.7902832    c-0.8867989,3.1740742-0.1009789,6.5181007,0.3252335,9.7645378c0.132019,1.0055847,1.1153374,1.434145,1.9204941,0.7954941    c3.255188-2.5820122,6.8442421-4.6872692,8.6050339-8.5619621c1.7343826-3.8165817,2.7753754-7.6139383,4.8154984-11.3330708    c2.8877983-5.2644324,1.459877-8.8031616-4.225193-10.333663C43.624073,0.5926928,43.0268288,2.7625618,44.4257813,3.1391795    L44.4257813,3.1391795z"/></g><g><path class="st0" d="M40.3916969,8.2035017c2.3260384,0.2009478,4.3130608,1.2010946,6.1226387,2.6710777    c1.1144142,0.9052782,2.7157516-0.6773081,1.590992-1.5909901c-2.3206596-1.8851533-4.7253189-3.0719256-7.7136307-3.3300877    C38.9493065,5.8288927,38.9576454,8.0796127,40.3916969,8.2035017L40.3916969,8.2035017z"/></g><g><path class="st0" d="M8.8082132,31.5229969c8.7500219,0.0159283,17.500042,0.0318584,26.2500648,0.0477886    c1.447876,0.002636,1.4500465-2.2473602,0-2.25c-8.750021-0.0159302-17.500042-0.0318604-26.2500648-0.0477886    C7.3603368,29.2703609,7.3581662,31.5203571,8.8082132,31.5229969L8.8082132,31.5229969z"/></g><g><path class="st0" d="M8.7248516,27.1215534c5.5277777,0,11.0555553,0,16.583334,0c1.4477673,0,1.4501648-2.25,0-2.25    c-5.5277786,0-11.0555563,0-16.583334,0C7.2770844,24.8715534,7.2746863,27.1215534,8.7248516,27.1215534L8.7248516,27.1215534z"/></g><g><path class="st0" d="M8.8084192,22.1744785c4.3055143,0.0331249,8.6110296,0.0662518,12.916543,0.0993767    c1.4481621,0.0111427,1.4495983-2.2388477,0-2.25c-4.3055134-0.0331249-8.6110287-0.0662518-12.916543-0.0993767    C7.3602576,19.9133377,7.3588209,22.1633263,8.8084192,22.1744785L8.8084192,22.1744785z"/></g><g><path class="st0" d="M41.6995125,24.3301067c-0.029953,4.1211872,0.3385773,8.4606838-0.0913086,12.5631275    c-0.4021683,3.8378792-1.6088257,5.0076599-5.2741127,4.967762c-2.3207512-0.0252609-4.6414986-0.0505257-6.9622459-0.0757866    c-4.6414967-0.0505219-9.2829952-0.1010475-13.9244919-0.1515732c-1.964632-0.0213852-4.0212803,0.1492233-5.967639-0.0649567    c-1.9067588,0.236515-3.6606431-0.2438927-5.2616525-1.4412193c-0.1359782-1.0998116-0.193327-2.2025795-0.1720457-3.3083038    c-0.1087425-4.2833138-0.0170541-8.5801926-0.0255718-12.8654633c-0.0032835-1.651844-0.8606994-6.564867-0.0157371-7.9172077    c1.2753386-2.0411472,4.725359-1.6042109,6.6458464-1.6164818c9.3023882-0.0594339,18.6047783-0.1188679,27.9071655-0.1783018    c1.4473114-0.0092468,1.4505081-2.2592678,0-2.25c-7.3090191,0.0466976-14.6180401,0.0933962-21.9270592,0.1400948    c-3.2967262,0.0210629-6.6764059-0.156292-9.9668465,0.0636787C5.4208088,12.278573,4.0499964,12.253602,3.0262766,13.106019    c-2.9157133,2.4278173-1.2584426,9.5344362-1.2518982,12.8269777c0.0065569,3.2987766,0.0026705,6.5977726,0.0196708,9.8965092    c0.0097517,1.8921928-0.2694438,4.5092087,0.7748265,6.2353401c1.9206114,3.1746788,7.8607326,1.7641716,10.8892651,1.7971382    c6.962245,0.0757866,13.9244909,0.1515732,20.8867378,0.2273598c2.6515312,0.028862,7.7569313,1.1522331,9.2553024-2.0108032    c0.880455-1.8586311,0.2568665-5.0264435,0.2710648-6.9800415c0.0260887-3.5894623,0.0521774-7.1789284,0.0782661-10.7683926    C43.9600372,22.8819618,41.7100487,22.8804722,41.6995125,24.3301067L41.6995125,24.3301067z"/></g><g><path class="st0" d="M3.2248015,36.9768448c12.9166794-0.0106125,25.8333607-0.0212212,38.750042-0.0318298    c1.4477158-0.0011902,1.4502182-2.251194,0-2.25c-12.9166794,0.0106087-25.8333607,0.0212173-38.750042,0.0318298    C1.7770861,34.728035,1.7745855,36.978035,3.2248015,36.9768448L3.2248015,36.9768448z"/></g><g><path class="st0" d="M22.5581856,40.3715553c1.4477673,0,1.4501648-2.25,0-2.25    C21.1104183,38.1215553,21.1080189,40.3715553,22.5581856,40.3715553L22.5581856,40.3715553z"/></g><g><path class="st0" d="M13.1416321,51.4452972c6.2235947,0.0631027,12.4445744,0.0017586,18.6657028-0.1840591    c1.4446144-0.043148,1.4507408-2.2933311,0-2.25c-6.2211418,0.1858177-12.4421215,0.2471619-18.6657028,0.1840591    C11.6933804,49.1806145,11.6922503,51.430603,13.1416321,51.4452972L13.1416321,51.4452972z"/></g><g><path class="st0" d="M24.3073635,44.1606064c0.843605,0.5403442,1.1905251,1.8328857,1.7710247,2.6273003    c0.7303257,0.9994545,1.9082546,1.8567657,2.3773308,3.0126686c0.5374012,1.3242722,2.7148075,0.7453003,2.1696281-0.5981369    c-0.6321449-1.5577393-1.9177799-2.5185394-2.8405819-3.8804398c-0.7681961-1.133728-1.1355591-2.3315926-2.3417835-3.1041985    C24.2200699,41.4345055,23.0904598,43.3811607,24.3073635,44.1606064L24.3073635,44.1606064z"/></g><g><path class="st0" d="M18.7599487,43.1203766c-0.3776417,1.0965958-1.2583122,1.9473305-1.9450397,2.8579559    c-0.7373867,0.9777985-1.4128075,1.9947815-2.0441809,3.0438042c-0.7485714,1.2437439,1.1961584,2.3761673,1.9428091,1.1356163    c0.7398739-1.2292938,1.5408726-2.414444,2.4321918-3.539341c0.7261009-0.9163857,1.3981285-1.7798462,1.7838478-2.8998947    C21.4020557,42.3465347,19.2293968,41.7572021,18.7599487,43.1203766L18.7599487,43.1203766z"/></g></g></svg>