<svg width="512" height="512" xmlns="http://www.w3.org/2000/svg">

 <g>
  <title>background</title>
  <rect fill="none" id="canvas_background" height="402" width="582" y="-1" x="-1"/>
 </g>
 <g>
  <title>Layer 1</title>
  <path fill="#4e4e50" id="svg_3" d="m416,0l-64,0l0,64l64,0l0,-64zm64,0l-32,0l0,96l-128,0l0,-96l-128,0l0,96l-128,0l0,-96l-32,0c-17.688,0 -32,14.328 -32,32l0,448c0,17.688 14.312,32 32,32l448,0c17.688,0 32,-14.312 32,-32l0,-448c0,-17.672 -14.312,-32 -32,-32zm-32,448l-384,0l0,-288l384,0l0,288zm-288,-448l-64,0l0,64l64,0l0,-64zm128,224l-64,0l0,64l64,0l0,-64zm96,0l-64,0l0,64l64,0l0,-64zm-192,96l-64,0l0,64l64,0l0,-64zm0,-96l-64,0l0,64l64,0l0,-64zm96,96l-64,0l0,64l64,0l0,-64zm96,0l-64,0l0,64l64,0l0,-64z"/>
 </g>
</svg>