<?xml version="1.0" encoding="utf-8"?>
<!-- Generator: Adobe Illustrator 23.0.0, SVG Export Plug-In . SVG Version: 6.00 Build 0)  -->
<svg version="1.1" id="Ebene_1" xmlns="http://www.w3.org/2000/svg" xmlns:xlink="http://www.w3.org/1999/xlink" x="0px" y="0px"
	 viewBox="0 0 32 32" style="enable-background:new 0 0 32 32;" xml:space="preserve">
<style type="text/css">
	.st0{fill:#DBDBDB;}
</style>
<g id="Layer_1">
</g>
<g id="chat_x5F_alt_x5F_fill">
	<g>
		<g>
			<path class="st0" d="M24,12c0,4.4-3.6,8-8,8c0-2.2-1.8-4-4-4H8c-4,0-8-2.3-8-8c0-5.9,4-8,8-8h8c4,0,8,2.5,8,8V12z"/>
		</g>
		<path class="st0" d="M12,12"/>
		<path class="st0" d="M12,12"/>
		<g>
			<g>
				<path class="st0" d="M26,12.2c-0.1,5.4-4.5,9.8-10,9.8h-2v-2c0-1.1-0.9-2-2-2H8.2C8.1,18.6,8,19.3,8,20v4c0,4.4,3.6,8,8,8
					c0-2.2,1.8-4,4-4h4c4,0,8-2.3,8-8C32,15.1,29.2,12.8,26,12.2z"/>
			</g>
		</g>
	</g>
</g>
</svg>
