<?xml version="1.0" encoding="utf-8"?>
<!-- Generator: Adobe Illustrator 23.0.0, SVG Export Plug-In . SVG Version: 6.00 Build 0)  -->
<svg version="1.1" id="Layer_1" xmlns="http://www.w3.org/2000/svg" xmlns:xlink="http://www.w3.org/1999/xlink" x="0px" y="0px"
	 viewBox="0 0 30 30" style="enable-background:new 0 0 30 30;" xml:space="preserve">
<style type="text/css">
	.st0{fill:#FFFFFF;}
</style>
<path class="st0" d="M15,3C8.4,3,3,8.4,3,15s5.4,12,12,12s12-5.4,12-12S21.6,3,15,3z M16.4,15c0,0,3.1,3.1,3.3,3.3
	c0.4,0.4,0.4,1,0,1.4c-0.4,0.4-1,0.4-1.4,0c-0.2-0.2-3.3-3.3-3.3-3.3s-3.1,3.1-3.3,3.3c-0.4,0.4-1,0.4-1.4,0c-0.4-0.4-0.4-1,0-1.4
	c0.2-0.2,3.3-3.3,3.3-3.3s-3.1-3.1-3.3-3.3c-0.4-0.4-0.4-1,0-1.4c0.4-0.4,1-0.4,1.4,0c0.2,0.2,3.3,3.3,3.3,3.3s3.1-3.1,3.3-3.3
	c0.4-0.4,1-0.4,1.4,0c0.4,0.4,0.4,1,0,1.4C19.6,11.9,16.4,15,16.4,15z"/>
</svg>
