<?xml version="1.0" ?><svg id="Layer_1" style="enable-background:new 0 0 52 52;" version="1.1" viewBox="0 0 52 52" xml:space="preserve" xmlns="http://www.w3.org/2000/svg" xmlns:xlink="http://www.w3.org/1999/xlink"><style type="text/css">
	.st0{fill:#231F20;}
</style><g><g><path class="st0" d="M27.7391205,18.6156178c0.0328712,0.6221848-0.0623646,1.5936165-0.6737041,1.964901    c-0.8732738,0.5303631-1.4110508-0.4647903-1.4726906-1.1977043c-0.0534515-0.6355457-0.3018799-1.7220612,0.4107227-2.1040306    c0.3775215-0.2023582,0.9922142-0.0419712,1.3091297,0.2867184c0.245615,0.2547417,0.2186527,0.5597744,0.2240944,1.0098057    c0.0174904,1.4468021,2.2675381,1.4507103,2.25,0c-0.0106125-0.8777523-0.0744438-1.9056511-0.7595272-2.5428238    c-0.7001534-0.6511898-1.8526382-1.2019243-2.8217659-1.1598167c-0.9688416,0.0420952-1.7843285,0.6693153-2.3621979,1.4080429    c-0.7134171,0.9120064-0.5881634,2.0067558-0.5004559,3.1021042c0.0818901,1.022686,0.2027721,1.9501209,1.0189476,2.6506405    c0.6705284,0.57551,1.6224899,1.0519352,2.5202904,0.9764042c2.08881-0.1757317,3.2057209-2.5285931,3.1071568-4.3942413    C29.9130211,17.1751671,27.6625462,17.1661911,27.7391205,18.6156178L27.7391205,18.6156178z"/></g><g><path class="st0" d="M27.2416439,26.3776016c2.5866528,0.1028328,4.7006779,1.7823334,4.3478737,4.494463    c0.18573-0.3238029,0.37146-0.647604,0.5571918-0.971405c-1.1513996,0.5058537-3.2983723,0.0504017-4.5686703,0.0500889    c-1.6495037-0.0004063-3.7369595,0.3465595-5.3410931-0.001318c-0.6720562-0.1457424-1.5801144,1.3767967-0.2336178-1.1461067    c0.3224373-0.604147,0.9091377-1.1585522,1.430584-1.5860004c1.5005474-1.230051,3.0223713-1.0329304,4.8519459-1.0730076    c1.4457073-0.0316677,1.4508419-2.2817802,0-2.25c-1.750576,0.0383472-3.6139469-0.1579723-5.1735325,0.765583    c-1.37854,0.8163414-2.7174683,2.1500416-3.3563824,3.6364079c-0.3832684,0.8916321-0.7587986,2.5884743-0.0181007,3.4226704    c1.019968,1.1487179,4.1069374,0.4808521,5.4124279,0.4811726c1.2948093,0.0003204,2.5896206,0.0006409,3.8844299,0.0009575    c1.0914955,0.0002708,2.6149025,0.2444992,3.6481915-0.0989418c1.3713188-0.4557915,1.2012253-1.5091496,1.096096-2.7770481    c-0.2691536-3.246069-3.4387589-5.0743313-6.537344-5.1975155C25.793684,24.0700378,25.7962513,26.3201389,27.2416439,26.3776016    L27.2416439,26.3776016z"/></g><g><path class="st0" d="M14.9524651,45.9929085c7.4444027-0.0363731,14.8888054-0.0727425,22.3332062-0.1091118    c1.4474297-0.0070686,1.4504395-2.2570839,0-2.25c-7.4444008,0.0363693-14.8888035,0.0727386-22.3332062,0.1091118    C13.5050364,43.7499771,13.5020285,45.9999924,14.9524651,45.9929085L14.9524651,45.9929085z"/></g><g><path class="st0" d="M18.789423,12.4332209c3.524622-0.0194216,7.0492458-0.0388441,10.5738678-0.0582657    c1.7691841-0.0097494,5.3141994,0.0572958,6.2943172,2.0485077c0.4658775,0.9464769,0.0234337,4.5945063,0.024971,5.6614256    c0.004528,3.144865-0.0066833,6.2903271-0.0783272,9.4345055c-0.0477791,2.0969963,0.3624916,5.4982529-1.8963165,6.8007851    c-1.0483742,0.6045418-4.2342854,0.0021172-5.3716469,0.0026855c-0.4820099,0.0002403-0.9679031,0.3480148-1.0848122,0.8259315    c-0.5871315,2.4001122-1.3070793,4.7010841-2.192667,7.0078125c0.62677-0.1654739,1.25354-0.3309517,1.8803082-0.4964256    c-1.4104881-1.727108-1.5329742-6.2252197-3.4399967-7.4839973c-2.2426472-1.4803123-4.4923077,0.949501-6.4613113-1.437748    c-2.134491-2.5878944-0.8627529-9.8761883-0.870924-13.271965c-0.0047359-1.9679451-0.1889687-4.0318012-0.0144291-5.9960051    c0.2637043-2.9676085,0.2358398-2.6396027,3.1160126-3.2786913c1.4129791-0.31353,0.8150139-2.4831963-0.5981388-2.1696281    c-2.8127661,0.6241322-4.2596483,0.5848227-4.7726822,3.4496508c-0.550642,3.0748339,0.0164814,6.8492041,0.0240469,9.9933405    c0.0079536,3.3053284-0.1839867,6.6935558,0.0240469,9.9933414c0.1246958,1.9779015,0.3638916,3.8629684,2.4476395,4.6387138    c2.5961647,0.966507,4.6940823-0.8882141,6.3184414,2.0210228c1.047224,1.8755875,1.2139893,3.3913651,2.6363049,5.1329536    c0.5889454,0.7211494,1.6100731,0.2074738,1.8803101-0.4964256c0.386816-1.0075569,1.0854721-4.4526825,1.7559795-5.2226944    c1.1085815-1.2730942,2.2716599-0.9104805,3.8282433-0.9614258c1.4087296-0.0461006,3.1855927,0.0840683,4.1989479-1.1857872    c0.9795265-1.2274666,0.7155495-3.637989,0.7627373-5.0364914c0.1166649-3.4575653,0.1525574-6.9169006,0.1589203-10.3762569    c0.0066605-3.6197968,1.503952-9.5810404-2.5833855-11.4592953c-1.4777832-0.6790857-3.4709606-0.3942204-5.0253277-0.393137    c-3.8449268,0.0026808-7.6902618,0.0423765-11.5351295,0.0635633    C17.3420429,10.1911964,17.3389568,12.4412136,18.789423,12.4332209L18.789423,12.4332209z"/></g><g><path class="st0" d="M34.6973,10.776494c0.3599396-2.7814875,3.6264191-2.071682,5.7575836-2.0877485    c1.3814163-0.0104141,6.4484901-0.8400745,7.4951096-0.0565042c2.2436752,1.6797667,0.9928703,9.0703592,0.9660988,11.6741877    c-0.0275764,2.6820869,0.9610634,5.5819874-2.1837654,6.5064106c-0.8910942,0.2619362-1.5848007-0.2734451-2.5362396,0.2489586    c-1.8622818,1.0225201-2.4225578,4.4685917-3.1348915,6.2586021c0.7232094,0,1.4464188,0,2.1696281,0    c-1.3707581-3.8189621-2.2160301-6.8237381-6.7129097-6.2003708c-1.4280319,0.1979561-0.8202362,2.3662453,0.5981369,2.1696262    c2.7547035-0.3818607,3.2895393,2.802351,3.9451447,4.6288815c0.392025,1.0921974,1.7575569,1.0354805,2.1696281,0    c0.7449341-1.8719254,1.3456459-4.0903778,3.501503-4.8556976c0.8192902-0.2908459,1.9682961,0.2218781,2.808548-0.280323    c0.7646523-0.4570179,1.0755348-1.0938931,1.3728065-1.9377117c0.9879799-2.8044128,0.2769356-7.2539082,0.2615852-10.1814098    c-0.01091-2.081068,0.6515617-6.6188955-0.3375702-8.5306664c-1.7556076-3.3932109-8.2919235-1.7097454-11.3197021-1.6869197    c-5.1447906,0.0387859-6.4165726-0.7241488-7.070694,4.3306851C32.2620125,12.2083559,34.5137634,12.1948071,34.6973,10.776494    L34.6973,10.776494z"/></g><g><path class="st0" d="M18.9594231,11.0227633c0.1114349-2.2757282-0.6142654-3.5586638-2.8328648-4.183208    C13.1530333,6.0024958,7.2123604,5.6937919,4.139854,6.3966665C2.1156538,6.8597283,1.262818,7.8185134,0.9519073,9.8384619    C0.1232405,15.222209,0.8799507,21.3460617,0.8550074,26.7926331c-0.0024668,0.5386372,0.3596285,0.9005318,0.8259304,1.0848141    c0.5285335,0.2088737,1.0318277,0.4287052,1.5831625,0.5476551c2.3505223,0.507122,2.4664991-0.8553352,3.8342226,1.9337883    c0.7533355,1.5362358,0.8107705,2.8826752,1.6281166,4.3025475c0.3890638,0.6758766,1.5863419,0.7897377,1.9428091,0    c0.5255651-1.1643639,1.7524471-5.847271,3.3585367-5.526844c1.4140539,0.2821159,2.0191984-1.886116,0.5981388-2.1696281    c-4.4779863-0.8933907-4.4740572,3.4028854-5.8994846,6.5608559c0.647603,0,1.2952061,0,1.9428091,0    c-1.0575142-1.8370914,0.1964254-4.9390945-1.4911757-6.5306931c-2.1495562-2.0272751-5.0134377,0.7054558-6.0604572-2.9555492    c-0.5132229-1.7945328,0.0208406-4.5507469,0.0294187-6.4237938c0.0085642-1.8700714-0.5025187-4.6379194,0.0294187-6.4237928    c0.9217837-3.0947056,3.4837029-2.5743809,6.161788-2.4645605c1.5345221,0.0629263,7.5156431-0.6548643,7.3711824,2.295331    C16.6385517,12.4701147,18.8887329,12.4664021,18.9594231,11.0227633L18.9594231,11.0227633z"/></g></g></svg>