<?xml version="1.0" encoding="utf-8"?>
<!-- Generator: Adobe Illustrator 23.0.0, SVG Export Plug-In . SVG Version: 6.00 Build 0)  -->
<svg version="1.1" id="Ebene_1" xmlns:sketch="http://www.bohemiancoding.com/sketch/ns"
	 xmlns="http://www.w3.org/2000/svg" xmlns:xlink="http://www.w3.org/1999/xlink" x="0px" y="0px" viewBox="0 0 32 32"
	 style="enable-background:new 0 0 32 32;" xml:space="preserve">
<style type="text/css">
	.st0{fill-rule:evenodd;clip-rule:evenodd;fill:#8E8E8E;}
</style>
<title></title>
<desc></desc>
<g id="Page-1">
	<g id="icon-132-cloud">
		<path id="cloud" class="st0" d="M26.9,15.4c1.8,0.7,3.1,2.5,3.1,4.6c0,2.8-2.2,5-5,5H8c-2.8,0-5-2.2-5-5c0-2.1,1.2-3.8,3-4.6l0,0
			c0-0.1,0-0.3,0-0.4c0-3.9,3.1-7,7-7c2.6,0,4.9,1.4,6.1,3.6c0.7-0.4,1.5-0.6,2.4-0.6C24.1,11,26.4,12.9,26.9,15.4z"/>
	</g>
</g>
</svg>
