<svg width="99.99999999999999" height="99.99999999999999" xmlns="http://www.w3.org/2000/svg">

 <g>
  <title>background</title>
  <rect fill="none" id="canvas_background" height="402" width="582" y="-1" x="-1"/>
 </g>
 <g>
  <title>Layer 1</title>
  <path fill="#4e4e50" fill-rule="nonzero" stroke-width="2" id="path9260" d="m22.91668,12.50005c-2.30833,0 -4.16666,1.85833 -4.16666,4.16666c0,0 0,44.44449 0,66.66659c0,2.0834 2.08333,4.1667 4.16666,4.1667c6.94446,0 20.83332,0 20.83332,0l0,-12.5c0,-2.3083 2.2025,-4.1667 4.16667,-4.1667l4.16666,0c1.96416,0 4.16667,1.8584 4.16667,4.1667c0,4.1667 0,8.3333 0,12.5c0,0 13.88886,0 20.83331,0c2.08334,0 4.16667,-2.0833 4.16667,-4.1667c0,-22.222 0,-66.66659 0,-66.66659c0,-2.30833 -1.85833,-4.16666 -4.16667,-4.16666l-54.16663,0zm8.33333,12.49998l12.49999,0l0,8.33332l-12.49999,0l0,-8.33332zm24.99999,0l12.49999,0l0,8.33332l-12.49999,0l0,-8.33332zm-24.99999,24.99997l12.49999,0l0,8.3333l-12.49999,0l0,-8.3333zm24.99999,0l12.49999,0l0,8.3333l-12.49999,0l0,-8.3333z"/>
 </g>
</svg>