<svg width="1792" height="1792" xmlns="http://www.w3.org/2000/svg">

 <g>
  <title>background</title>
  <rect fill="none" id="canvas_background" height="402" width="582" y="-1" x="-1"/>
 </g>
 <g>
  <title>Layer 1</title>
  <path fill="#4e4e50" id="svg_1" d="m1600,640q0,-80 -56,-136t-136,-56l-64,0l0,384l64,0q80,0 136,-56t56,-136zm-1664,768l1792,0q0,106 -75,181t-181,75l-1280,0q-106,0 -181,-75t-75,-181zm1856,-768q0,159 -112.5,271.5t-271.5,112.5l-64,0l0,32q0,92 -66,158t-158,66l-704,0q-92,0 -158,-66t-66,-158l0,-736q0,-26 19,-45t45,-19l1152,0q159,0 271.5,112.5t112.5,271.5z"/>
 </g>
</svg>