<svg width="627.55" height="759.19" xmlns="http://www.w3.org/2000/svg">
 <defs>
  <style type="text/css">.cls-1{fill:#99bfa3;}.cls-2{fill:#fff;}.cls-3{fill:#e41e25;}.cls-4{fill:#f5cf16;}</style>
 </defs>
 <title>rheinland-palatinate-coat-of-arms</title>
 <g>
  <title>background</title>
  <rect fill="none" id="canvas_background" height="402" width="582" y="-1" x="-1"/>
 </g>
 <g>
  <title>Layer 1</title>
  <path id="svg_1" d="m313.780003,741.189999a256,256 0 0 1 -256,-256l0,-292.08a1129.46,1129.46 0 0 1 512,0l0,292.08a256,256 0 0 1 -256,256z" class="cls-1"/>
  <path id="svg_2" d="m624.250003,57.529999a10.67,10.67 0 0 0 -5.18,-1.36a10.51,10.51 0 0 0 -1.63,0.13a38.85,38.85 0 0 0 -3.75,-15.25l-0.48,-1l-2,-0.72l-0.94,0.37a53.32,53.32 0 0 0 -18.66,12.92a15.38,15.38 0 0 0 -10.74,-4.77a12,12 0 0 0 -4.39,0.82l-4.87,1.91l4.43,2.78a12.31,12.31 0 0 1 4.48,5.22c2.38,5.1 1.2,10.7 -2.62,12.49a5.65,5.65 0 0 1 -1.67,0.47l-0.28,0c-3,0 -6,-2.31 -7.65,-5.75a10.82,10.82 0 0 1 -1,-6l0.72,-5.18l-4.59,2.51c-4.23,2.31 -6.54,7.27 -6.17,12.7a48.17,48.17 0 0 0 -19.55,5.41l-0.84,0.57l-0.65,1.9l0.36,0.91a48.15,48.15 0 0 0 11.5,16.71c-3.78,3.92 -5.19,9.21 -3.44,13.7l1.91,4.87l2.78,-4.43a10.83,10.83 0 0 1 4.58,-3.93a11.16,11.16 0 0 1 4.68,-1.07c2.88,0 5.26,1.27 6.21,3.31a4.88,4.88 0 0 1 0.42,1.53l0,0.28a18.64,18.64 0 1 1 -33.73,-6.82a8.29,8.29 0 0 1 2,-2a7.75,7.75 0 0 1 4.06,-1.48l5.23,-0.25l-3.31,-4.05a10,10 0 0 0 -7.87,-3.51a12.76,12.76 0 0 0 -2.73,0.33a37.6,37.6 0 0 0 -6.84,-13.72l-0.63,-0.77l-2,-0.35l-0.86,0.55a37.59,37.59 0 0 0 -10.9,10.78a11.86,11.86 0 0 0 -6,-1.75a9.4,9.4 0 0 0 -5,1.39l-4.44,2.77l4.87,1.92a7.76,7.76 0 0 1 3.37,2.71a8.31,8.31 0 0 1 1.37,2.93a18.66,18.66 0 0 1 -18.11,23a19,19 0 0 1 -2,-0.11a18.65,18.65 0 0 1 -12.77,-29.91l0.07,-0.09l0.06,-0.09a4.89,4.89 0 0 1 1.05,-1.19a5.35,5.35 0 0 1 3.4,-1.13a9.94,9.94 0 0 1 7.35,3.93a10.84,10.84 0 0 1 2.38,5.55l0.55,5.2l3.86,-3.53c3.55,-3.25 4.62,-8.63 3,-13.81a48.15,48.15 0 0 0 17.69,-9.92l0.75,-0.69l0.22,-2l-0.59,-0.82a48.14,48.14 0 0 0 -15.16,-13.47c2.73,-4.71 2.84,-10.18 0.07,-14.12l-3,-4.28l-1.64,5a10.82,10.82 0 0 1 -3.51,4.91a10.42,10.42 0 0 1 -6.44,2.43a6.6,6.6 0 0 1 -3.2,-0.77a5.63,5.63 0 0 1 -1.29,-1.16c-2.65,-3.29 -1.23,-8.83 3.15,-12.36a12.32,12.32 0 0 1 6.32,-2.71l5.21,-0.54l-3.53,-3.86a13,13 0 0 0 -9.83,-4.14a17.26,17.26 0 0 0 -5.54,0.94a53.32,53.32 0 0 0 -11.05,-19.83l-0.68,-0.73l-2,-0.25l-0.84,0.6a53.31,53.31 0 0 0 -15,17a16.27,16.27 0 0 0 -8.4,-2.45a12.46,12.46 0 0 0 -7.23,2.22l-4.28,3l5,1.64a12.33,12.33 0 0 1 5.6,4a11.88,11.88 0 0 1 2.76,7.32a6.74,6.74 0 0 1 -2.33,5.43a5.63,5.63 0 0 1 -1.51,0.85a5.93,5.93 0 0 1 -1.71,0.24a9.94,9.94 0 0 1 -7.35,-3.93a10.83,10.83 0 0 1 -2.44,-5.52l-0.55,-5.2l-3.86,3.53c-3.55,3.25 -4.62,8.63 -3,13.81a48.15,48.15 0 0 0 -17.69,9.92l-0.74,0.69l-0.22,2l0.59,0.82a48.14,48.14 0 0 0 15.17,13.47c-2.73,4.71 -2.84,10.18 -0.07,14.12l3,4.28l1.64,-5a10.82,10.82 0 0 1 3.51,-4.91a10.42,10.42 0 0 1 6.44,-2.43a5.81,5.81 0 0 1 4.67,2a4.94,4.94 0 0 1 0.77,1.39l0.11,0.26a18.65,18.65 0 0 1 -16.87,26.54a19,19 0 0 1 -2,-0.11a18.65,18.65 0 0 1 -12.48,-30.28a9.6,9.6 0 0 1 1,-0.94a7.74,7.74 0 0 1 3.87,-1.91l5.17,-0.82l-3.73,-3.67a9.77,9.77 0 0 0 -6.92,-2.7a12.42,12.42 0 0 0 -3.92,0.65a37.6,37.6 0 0 0 -8.34,-12.82l-0.75,-0.73l-2,-0.07l-0.76,0.61a37.58,37.58 0 0 0 -9.65,11.91a12.14,12.14 0 0 0 -5,-1.14a9.51,9.51 0 0 0 -6,2l-4.11,3.24l5,1.38a7.74,7.74 0 0 1 3.64,2.32a9.38,9.38 0 0 1 0.9,1.12l0,0.07a18.64,18.64 0 1 1 -31.71,0.16l0.05,-0.09l0,-0.09a4.89,4.89 0 0 1 0.92,-1.3a5.59,5.59 0 0 1 4,-1.53a10.12,10.12 0 0 1 7,3.15a10.82,10.82 0 0 1 3,5.26l1.1,5.12l3.46,-3.93c3.18,-3.62 3.66,-9.07 1.45,-14a48.16,48.16 0 0 0 16.52,-11.77l0.67,-0.77l0,-2l-0.67,-0.75a48.15,48.15 0 0 0 -16.52,-11.77c2.21,-5 1.73,-10.43 -1.45,-14l-3.46,-3.93l-1.1,5.12a10.82,10.82 0 0 1 -3,5.26a10.12,10.12 0 0 1 -7,3.15a6.21,6.21 0 0 1 -2.43,-0.46a5.62,5.62 0 0 1 -1.41,-1c-3,-3 -2.17,-8.65 1.81,-12.63a12.32,12.32 0 0 1 6,-3.37l5.12,-1.1l-3.93,-3.46a12.64,12.64 0 0 0 -8.5,-3.07a16.89,16.89 0 0 0 -7.06,1.63a53.3,53.3 0 0 0 -13.12,-18.53l-0.83,-0.67l-2,0l-0.75,0.67a53.32,53.32 0 0 0 -12.98,18.39a16.88,16.88 0 0 0 -7.06,-1.63a12.64,12.64 0 0 0 -8.5,3.07l-3.93,3.46l5.12,1.1a12.33,12.33 0 0 1 6,3.37c4,4 4.79,9.65 1.81,12.63a5.63,5.63 0 0 1 -1.41,1a6.2,6.2 0 0 1 -2.43,0.46a10.12,10.12 0 0 1 -7,-3.15a10.82,10.82 0 0 1 -3,-5.26l-1.1,-5.12l-3.46,3.93c-3.18,3.62 -3.66,9.07 -1.45,14a48.15,48.15 0 0 0 -16.52,11.77l-0.67,0.77l0,2l0.67,0.75a48.16,48.16 0 0 0 16.52,11.77c-2.21,5 -1.73,10.43 1.45,14l3.46,3.93l1.1,-5.12a10.83,10.83 0 0 1 3,-5.26a10.12,10.12 0 0 1 7,-3.15a5.59,5.59 0 0 1 4,1.53a4.88,4.88 0 0 1 0.92,1.3l0.14,0.25a18.64,18.64 0 1 1 -31.78,-0.19l0.09,-0.14a9.32,9.32 0 0 1 0.88,-1.09a7.75,7.75 0 0 1 3.64,-2.32l5,-1.38l-4.11,-3.24a9.51,9.51 0 0 0 -6,-2a12.14,12.14 0 0 0 -5,1.14a37.58,37.58 0 0 0 -9.65,-11.91l-0.78,-0.61l-2,0.07l-0.73,0.73a37.61,37.61 0 0 0 -8.22,12.99a12.41,12.41 0 0 0 -3.92,-0.65a9.77,9.77 0 0 0 -6.92,2.7l-3.74,3.67l5.17,0.82a7.74,7.74 0 0 1 3.87,1.91a9.67,9.67 0 0 1 1,1a18.64,18.64 0 0 1 -12.5,30.25a19,19 0 0 1 -2,0.11a18.65,18.65 0 0 1 -16.9,-26.66l0,-0.1l0,-0.1a5,5 0 0 1 0.77,-1.39a5.81,5.81 0 0 1 4.67,-2a10.42,10.42 0 0 1 6.44,2.43a10.82,10.82 0 0 1 3.51,4.91l1.64,5l3,-4.28c2.78,-3.94 2.67,-9.41 -0.07,-14.12a48.16,48.16 0 0 0 15.16,-13.47l0.56,-0.81l-0.17,-2l-0.77,-0.7a48.16,48.16 0 0 0 -17.69,-9.92c1.66,-5.18 0.6,-10.55 -3,-13.81l-3.86,-3.53l-0.54,5.21a10.82,10.82 0 0 1 -2.38,5.55a9.94,9.94 0 0 1 -7.35,3.93a5.94,5.94 0 0 1 -1.71,-0.24a5.63,5.63 0 0 1 -1.51,-0.85a6.74,6.74 0 0 1 -2.33,-5.43a11.88,11.88 0 0 1 2.76,-7.32a12.32,12.32 0 0 1 5.6,-4l5,-1.64l-4.28,-3a12.46,12.46 0 0 0 -7.23,-2.22a16.28,16.28 0 0 0 -8.4,2.45a53.32,53.32 0 0 0 -15,-17l-0.86,-0.6l-2,0.25l-0.66,0.73a53.31,53.31 0 0 0 -10.96,19.79a17.26,17.26 0 0 0 -5.54,-0.94a13,13 0 0 0 -9.77,4.05l-3.53,3.86l5.21,0.54a12.32,12.32 0 0 1 6.32,2.71c4.38,3.53 5.8,9.07 3.15,12.36a5.63,5.63 0 0 1 -1.29,1.16a6.6,6.6 0 0 1 -3.2,0.77a10.42,10.42 0 0 1 -6.44,-2.43a10.82,10.82 0 0 1 -3.51,-4.91l-1.64,-5l-3,4.28c-2.78,3.94 -2.67,9.41 0.07,14.12a48.15,48.15 0 0 0 -15.23,13.5l-0.58,0.84l0.22,2l0.75,0.67a48.15,48.15 0 0 0 17.69,9.92c-1.66,5.18 -0.6,10.55 3,13.81l3.86,3.53l0.55,-5.2a10.83,10.83 0 0 1 2.38,-5.55a9.94,9.94 0 0 1 7.35,-3.93a5.35,5.35 0 0 1 3.4,1.13a4.86,4.86 0 0 1 1,1.19l0.1,0.15l0.07,0.09a18.65,18.65 0 0 1 -12.79,29.85a19,19 0 0 1 -2,0.11a18.66,18.66 0 0 1 -18.09,-23.07a8.21,8.21 0 0 1 1.35,-2.84a7.75,7.75 0 0 1 3.37,-2.71l4.87,-1.92l-4.5,-2.78a9.41,9.41 0 0 0 -5,-1.39a11.86,11.86 0 0 0 -6,1.75a37.59,37.59 0 0 0 -10.9,-10.78l-0.88,-0.54l-2,0.35l-0.62,0.77a37.59,37.59 0 0 0 -6.81,13.76a12.76,12.76 0 0 0 -2.67,-0.29a10,10 0 0 0 -7.87,3.51l-3.31,4.05l5.23,0.25a7.75,7.75 0 0 1 4.06,1.48a8.31,8.31 0 0 1 2,2l0,0a18.77,18.77 0 0 1 2.07,4.06a18.64,18.64 0 1 1 -35.8,2.69l0,-0.11l0,-0.11a4.89,4.89 0 0 1 0.42,-1.53c1,-2 3.33,-3.31 6.21,-3.31a11.17,11.17 0 0 1 4.68,1.07a10.81,10.81 0 0 1 4.58,3.93l2.79,4.43l1.91,-4.87c1.76,-4.49 0.34,-9.78 -3.44,-13.7a48.16,48.16 0 0 0 11.5,-16.71l0.37,-1l-0.7,-1.89l-0.88,-0.47a48.17,48.17 0 0 0 -19.55,-5.41c0.38,-5.43 -1.94,-10.39 -6.17,-12.7l-4.59,-2.51l0.72,5.18a10.82,10.82 0 0 1 -1,6c-1.6,3.44 -4.68,5.75 -7.65,5.75l-0.27,0a5.66,5.66 0 0 1 -1.67,-0.47a6.75,6.75 0 0 1 -3.56,-4.72a11.87,11.87 0 0 1 0.94,-7.77a12.32,12.32 0 0 1 4.48,-5.21l4.38,-2.84l-4.87,-1.91a12,12 0 0 0 -4.39,-0.82a15.38,15.38 0 0 0 -10.73,4.78a53.31,53.31 0 0 0 -18.66,-12.92l-1,-0.37l-2,0.72l-0.46,1a38.87,38.87 0 0 0 -3.75,15.25a10.48,10.48 0 0 0 -1.63,-0.13a10.68,10.68 0 0 0 -5.18,1.36l-3.31,1.82l2.98,2.44c4.24,3.7 8.6,11.16 10.35,17.73a55.37,55.37 0 0 1 1.65,13.27c0.18,4.93 0.35,9.59 2.86,14.77c2.63,5.42 7.45,9.75 12.12,13.93c3.21,2.87 6.24,5.59 8.13,8.32a27.36,27.36 0 0 1 2.1,3.55a104.7,104.7 0 0 1 3.88,10.9l-8.09,13.3l13.43,8.23l0.75,3l-5.18,1.24a12.5,12.5 0 0 0 -5.09,21.76l0,293.39a274,274 0 0 0 548,0l0,-293.39a12.5,12.5 0 0 0 -5.08,-21.76l-4.64,-1.09l0.71,-3.2l13.1,-8.09l-8,-13.19s1.06,-3.34 2.2,-6.24c1.06,-2.7 2.12,-6.22 4.13,-8.88a54.67,54.67 0 0 1 7.51,-7.82c4.67,-4.18 9.49,-8.5 12.12,-13.93c2.51,-5.18 2.68,-9.84 2.86,-14.76a55.38,55.38 0 0 1 1.67,-13.27c1.76,-6.57 6.11,-14 10.35,-17.73l2.85,-2.48l-3.31,-1.83zm-44.46,137.17l0,0a12.63,12.63 0 0 0 2,-0.16l0,290.65a268,268 0 1 1 -536,0l0,-290.66a12.42,12.42 0 0 0 4.92,-0.18l0.08,0l0,290.84a263,263 0 1 0 526,0l0,-290.86l0.08,0a12.56,12.56 0 0 0 2.92,0.37zm32,-115.82c-3.17,11.83 -0.18,19 -4.35,27.57s-15.17,14.86 -20,21.9a28.45,28.45 0 0 0 -3.57,7.15c-0.6,1.85 -3.45,7.83 -3.45,7.83l-13.64,8.32l8,13.05l-0.64,3.33a1151.9,1151.9 0 0 0 -520.65,0l-0.68,-3.36l8,-13l-13.27,-8.17s-2.54,-6.27 -3.5,-8.38a41.13,41.13 0 0 0 -3.84,-6.76c-4.88,-7 -15.87,-13.28 -20,-21.9s-1.19,-15.74 -4.35,-27.57c-1.98,-6.88 -6.43,-14.83 -11.26,-19.09a8,8 0 0 1 8.18,0.18a37.09,37.09 0 0 1 3.5,-17.84l0,0a51.53,51.53 0 0 1 19.7,14.47c3.56,-5 9.31,-7.38 14.1,-5.51a14.87,14.87 0 0 0 -5.47,6.33c-3,6.43 -1.25,13.59 3.9,16a8.35,8.35 0 0 0 2.54,0.71c4,0.26 8.36,-2.56 10.55,-7.26a13.38,13.38 0 0 0 1.2,-7.43c4.05,2.21 5.76,7.54 4.36,12.9a46.37,46.37 0 0 1 21.38,5.21l0,0a46.37,46.37 0 0 1 -13,17.73c4.52,3.21 6.64,8.38 5,12.69a13.38,13.38 0 0 0 -5.7,-4.92c-5.79,-2.7 -12.23,-1.13 -14.39,3.51a7.54,7.54 0 0 0 -0.65,2.35l0,0.06a21.28,21.28 0 1 0 38.49,-7.81l0,0a10.85,10.85 0 0 0 -2.59,-2.6a10.33,10.33 0 0 0 -5.47,-2c2.25,-2.76 6.54,-3.3 10.41,-1.48a35.79,35.79 0 0 1 7,-15.48l0,0a35.79,35.79 0 0 1 11.61,12.4c3.07,-3 7.3,-3.85 10.33,-2a10.33,10.33 0 0 0 -4.54,3.63a10.82,10.82 0 0 0 -1.77,3.78l0,0.07a21.28,21.28 0 1 0 37.61,-8l0,-0.06a7.54,7.54 0 0 0 -1.62,-1.82c-4,-3.21 -10.46,-1.78 -14.46,3.2a13.38,13.38 0 0 0 -2.95,6.93c-3.41,-3.12 -3.79,-8.7 -1.15,-13.57a46.37,46.37 0 0 1 -19.51,-10.17l0,0a46.37,46.37 0 0 1 16.89,-14.11c-3.62,-4.19 -4.44,-9.73 -1.78,-13.5a13.38,13.38 0 0 0 4.36,6.14c4,3.25 9.16,3.87 12.67,1.86a8.35,8.35 0 0 0 2,-1.76c3.56,-4.43 2,-11.62 -3.55,-16.07a14.87,14.87 0 0 0 -7.7,-3.27c3.47,-3.79 9.67,-4.21 15.08,-1.27a51.53,51.53 0 0 1 11.3,-21.68l0,0a51.53,51.53 0 0 1 15.52,18.88c4.66,-4 10.81,-4.94 15,-2a14.87,14.87 0 0 0 -6.82,4.84c-4.45,5.53 -4.46,12.9 0,16.46a8.35,8.35 0 0 0 2.3,1.29c3.85,1.22 8.73,-0.49 12,-4.52a13.38,13.38 0 0 0 2.95,-6.93c3.41,3.12 3.79,8.7 1.15,13.57a46.37,46.37 0 0 1 19.51,10.17l0,0a46.37,46.37 0 0 1 -16.89,14.11c3.62,4.19 4.44,9.73 1.78,13.5a13.38,13.38 0 0 0 -4.36,-6.14c-5,-4 -11.61,-4 -14.81,0a7.54,7.54 0 0 0 -1.19,2.13l0,0.06a21.28,21.28 0 1 0 35.83,-4.37l0,0a11.73,11.73 0 0 0 -1.24,-1.24a10.33,10.33 0 0 0 -5.31,-2.57c2.54,-2.5 6.86,-2.56 10.51,-0.33a35.79,35.79 0 0 1 8.64,-14.62l0,0a35.79,35.79 0 0 1 10.18,13.59c3.38,-2.62 7.68,-3 10.48,-0.82a10.33,10.33 0 0 0 -4.91,3.11a11.55,11.55 0 0 0 -1.14,1.44l-0.08,0.12a21.28,21.28 0 1 0 36.24,0.27l0,-0.06a7.54,7.54 0 0 0 -1.41,-2c-3.62,-3.62 -10.21,-2.89 -14.73,1.63a13.38,13.38 0 0 0 -3.67,6.57c-3.05,-3.47 -2.83,-9.06 0.32,-13.62a46.37,46.37 0 0 1 -18.31,-12.21l0,0a46.37,46.37 0 0 1 18.31,-12.21c-3.15,-4.56 -3.37,-10.15 -0.32,-13.62a13.38,13.38 0 0 0 3.67,6.57c3.66,3.66 8.7,4.83 12.4,3.21a8.35,8.35 0 0 0 2.15,-1.53c4,-4 3.21,-11.34 -1.81,-16.36a14.87,14.87 0 0 0 -7.3,-4.08c3.85,-3.39 10.06,-3.14 15.13,0.36a51.53,51.53 0 0 1 13.57,-20.34l0.08,0a51.53,51.53 0 0 1 13.57,20.34c5.06,-3.5 11.28,-3.75 15.13,-0.36a14.87,14.87 0 0 0 -7.3,4.08c-5,5 -5.83,12.34 -1.81,16.36a8.35,8.35 0 0 0 2.15,1.53c3.7,1.62 8.73,0.45 12.4,-3.21a13.38,13.38 0 0 0 3.61,-6.59c3.05,3.47 2.83,9.06 -0.32,13.62a46.37,46.37 0 0 1 18.31,12.21l0,0a46.37,46.37 0 0 1 -18.31,12.21c3.15,4.56 3.37,10.15 0.32,13.62a13.38,13.38 0 0 0 -3.67,-6.57c-4.52,-4.51 -11.11,-5.24 -14.73,-1.63a7.54,7.54 0 0 0 -1.41,2l0,0.06a21.28,21.28 0 1 0 36.24,-0.27l-0.08,-0.12a11.54,11.54 0 0 0 -1.14,-1.44a10.33,10.33 0 0 0 -4.96,-3.08c2.8,-2.21 7.1,-1.8 10.48,0.82a35.79,35.79 0 0 1 10.18,-13.59l0,0a35.79,35.79 0 0 1 8.64,14.62c3.65,-2.24 8,-2.17 10.51,0.33a10.33,10.33 0 0 0 -5.22,2.55a11.73,11.73 0 0 0 -1.24,1.24l0,0a21.28,21.28 0 1 0 35.84,4.42l0,-0.06a7.54,7.54 0 0 0 -1.19,-2.13c-3.21,-4 -9.84,-4 -14.81,0a13.38,13.38 0 0 0 -4.36,6.14c-2.66,-3.78 -1.84,-9.31 1.78,-13.5a46.37,46.37 0 0 1 -16.89,-14.11l0,0a46.37,46.37 0 0 1 19.48,-10.18c-2.64,-4.87 -2.26,-10.45 1.15,-13.57a13.38,13.38 0 0 0 2.95,6.93c3.25,4 8.13,5.74 12,4.52a8.35,8.35 0 0 0 2.3,-1.29c4.43,-3.56 4.41,-10.93 0,-16.46a14.87,14.87 0 0 0 -6.82,-4.84c4.19,-3 10.34,-2 15,2a51.53,51.53 0 0 1 15.62,-18.79l0,0a51.53,51.53 0 0 1 11.3,21.68c5.41,-2.94 11.61,-2.51 15.08,1.27a14.87,14.87 0 0 0 -7.7,3.27c-5.51,4.46 -7.08,11.65 -3.54,16.12a8.35,8.35 0 0 0 2,1.76c3.5,2 8.63,1.39 12.67,-1.86a13.38,13.38 0 0 0 4.36,-6.14c2.66,3.78 1.84,9.31 -1.78,13.5a46.37,46.37 0 0 1 16.89,14.11l0,0a46.37,46.37 0 0 1 -19.51,10.17c2.64,4.87 2.26,10.45 -1.15,13.57a13.38,13.38 0 0 0 -2.95,-6.93c-4,-5 -10.48,-6.41 -14.46,-3.2a7.54,7.54 0 0 0 -1.62,1.82l0,0.06a21.28,21.28 0 1 0 37.61,8l0,-0.07a10.82,10.82 0 0 0 -1.77,-3.78a10.33,10.33 0 0 0 -4.54,-3.63c3,-1.89 7.25,-1 10.33,2a35.79,35.79 0 0 1 11.61,-12.4l0,0a35.79,35.79 0 0 1 7,15.48c3.87,-1.82 8.15,-1.29 10.41,1.48a10.33,10.33 0 0 0 -5.47,2a10.85,10.85 0 0 0 -2.59,2.6l0,0a21.28,21.28 0 1 0 38.42,7.68l0,-0.06a7.54,7.54 0 0 0 -0.65,-2.35c-2.16,-4.64 -8.61,-6.21 -14.39,-3.51a13.38,13.38 0 0 0 -5.7,4.92c-1.68,-4.3 0.44,-9.48 5,-12.69a46.37,46.37 0 0 1 -13,-17.73l0,0a46.37,46.37 0 0 1 21.38,-5.21c-1.4,-5.36 0.3,-10.69 4.36,-12.9a13.38,13.38 0 0 0 1.2,7.43c2.19,4.7 6.52,7.52 10.55,7.26a8.35,8.35 0 0 0 2.54,-0.71c5.15,-2.4 6.9,-9.56 3.9,-16a14.87,14.87 0 0 0 -5.47,-6.33c4.78,-1.87 10.53,0.49 14.1,5.51a51.53,51.53 0 0 1 19.7,-14.47l0,0a37.09,37.09 0 0 1 3.5,17.84a8,8 0 0 1 8.18,-0.18c-4.93,4.22 -9.42,12.17 -11.26,19.04l-0.02,0z"/>
  <path id="svg_3" d="m579.790003,194.699999l0,0a12.63,12.63 0 0 0 2,-0.16l0,290.65a268,268 0 1 1 -536,0l0,-290.66a12.42,12.42 0 0 0 4.92,-0.18l0.08,0l0,290.84a263,263 0 1 0 526,0l0,-290.86l0.08,0a12.56,12.56 0 0 0 2.92,0.37z" class="cls-2"/>
  <path id="svg_4" d="m135.760003,177.859999q-39.24,6.26 -78,15.25l0,101.75l78,0l0,-117z" class="cls-2"/>
  <path id="svg_5" d="m283.130003,294.859999a580.33,580.33 0 0 0 28.21,-131.14q-52.87,0.11 -105.58,5.2l0,125.94l77.37,0z" class="cls-2"/>
  <path id="svg_6" d="m57.780003,364.859999l0,120.33a255.87,255.87 0 0 0 17.26,92.77a586.18,586.18 0 0 0 60.72,-51.16l0,-161.94l-77.98,0z" class="cls-2"/>
  <path id="svg_7" d="m205.760003,445.619999a583.17,583.17 0 0 0 48.35,-80.76l-48.35,0l0,80.76z" class="cls-2"/>
  <path id="svg_8" d="m256.550003,359.859999a579.74,579.74 0 0 0 24.87,-60l-80.66,0l0,-130.46q-30.1,3 -60,7.66l0,122.8l-83,0l0,60l83,0l0,162.06a586.6,586.6 0 0 0 60,-69.39l0,-92.67l55.79,0z" class="cls-3"/>
  <path id="svg_9" d="m569.780003,193.109999a1130.9,1130.9 0 0 0 -253.56,-29.39c16.41,170 105.72,318.59 236.3,414.24a255.87,255.87 0 0 0 17.26,-92.77l0,-292.08z" class="cls-3"/>
  <path id="svg_10" d="m611.810003,78.879999c-3.17,11.83 -0.18,19 -4.35,27.57s-15.17,14.86 -20,21.9a28.45,28.45 0 0 0 -3.59,7.15c-0.6,1.85 -3.45,7.83 -3.45,7.83l-13.64,8.32l8,13.05l-0.64,3.33a1151.9,1151.9 0 0 0 -520.65,0l-0.68,-3.36l8,-13l-13.27,-8.17s-2.54,-6.27 -3.5,-8.38a41.13,41.13 0 0 0 -3.84,-6.76c-4.88,-7 -15.87,-13.28 -20,-21.9s-1.19,-15.74 -4.35,-27.57c-1.98,-6.88 -6.43,-14.83 -11.26,-19.09a8,8 0 0 1 8.18,0.18a37.09,37.09 0 0 1 3.5,-17.84l0,0a51.53,51.53 0 0 1 19.7,14.47c3.56,-5 9.32,-7.38 14.1,-5.51a14.87,14.87 0 0 0 -5.47,6.33c-3,6.43 -1.25,13.59 3.9,16a8.35,8.35 0 0 0 2.54,0.71c4,0.26 8.36,-2.56 10.55,-7.26a13.38,13.38 0 0 0 1.2,-7.43c4.05,2.21 5.76,7.54 4.36,12.9a46.37,46.37 0 0 1 21.38,5.21l0,0a46.37,46.37 0 0 1 -13,17.73c4.52,3.21 6.64,8.38 5,12.69a13.38,13.38 0 0 0 -5.7,-4.92c-5.79,-2.7 -12.23,-1.13 -14.39,3.51a7.54,7.54 0 0 0 -0.65,2.35l0,0.06a21.28,21.28 0 1 0 38.49,-7.81l0,0a10.85,10.85 0 0 0 -2.59,-2.6a10.33,10.33 0 0 0 -5.47,-2c2.25,-2.76 6.54,-3.3 10.41,-1.48a35.79,35.79 0 0 1 7,-15.48l0,0a35.79,35.79 0 0 1 11.61,12.4c3.07,-3 7.3,-3.85 10.33,-2a10.33,10.33 0 0 0 -4.54,3.63a10.82,10.82 0 0 0 -1.77,3.78l0,0.07a21.28,21.28 0 1 0 37.61,-8l0,-0.06a7.54,7.54 0 0 0 -1.62,-1.82c-4,-3.21 -10.46,-1.78 -14.46,3.2a13.38,13.38 0 0 0 -2.95,6.93c-3.41,-3.12 -3.79,-8.7 -1.15,-13.57a46.37,46.37 0 0 1 -19.51,-10.17l0,0a46.37,46.37 0 0 1 16.89,-14.11c-3.62,-4.19 -4.44,-9.73 -1.78,-13.5a13.38,13.38 0 0 0 4.36,6.14c4,3.25 9.16,3.87 12.67,1.86a8.35,8.35 0 0 0 2,-1.76c3.56,-4.43 2,-11.62 -3.55,-16.07a14.87,14.87 0 0 0 -7.7,-3.27c3.47,-3.79 9.67,-4.21 15.08,-1.27a51.53,51.53 0 0 1 11.3,-21.68l0,0a51.53,51.53 0 0 1 15.52,18.88c4.66,-4 10.81,-4.94 15,-2a14.87,14.87 0 0 0 -6.82,4.84c-4.45,5.53 -4.46,12.9 0,16.46a8.35,8.35 0 0 0 2.3,1.29c3.85,1.22 8.73,-0.49 12,-4.52a13.38,13.38 0 0 0 2.95,-6.93c3.41,3.12 3.79,8.7 1.15,13.57a46.37,46.37 0 0 1 19.51,10.17l0,0a46.37,46.37 0 0 1 -16.89,14.11c3.62,4.19 4.44,9.73 1.78,13.5a13.38,13.38 0 0 0 -4.36,-6.14c-5,-4 -11.61,-4 -14.81,0a7.54,7.54 0 0 0 -1.19,2.13l0,0.06a21.28,21.28 0 1 0 35.83,-4.37l0,0a11.73,11.73 0 0 0 -1.24,-1.24a10.33,10.33 0 0 0 -5.31,-2.57c2.54,-2.5 6.86,-2.56 10.51,-0.33a35.79,35.79 0 0 1 8.64,-14.62l0,0a35.79,35.79 0 0 1 10.18,13.59c3.38,-2.62 7.68,-3 10.48,-0.82a10.33,10.33 0 0 0 -4.91,3.11a11.55,11.55 0 0 0 -1.14,1.44l-0.08,0.12a21.28,21.28 0 1 0 36.24,0.27l0,-0.06a7.54,7.54 0 0 0 -1.41,-2c-3.62,-3.62 -10.21,-2.89 -14.73,1.63a13.38,13.38 0 0 0 -3.67,6.57c-3.05,-3.47 -2.83,-9.06 0.32,-13.62a46.37,46.37 0 0 1 -18.31,-12.21l0,0a46.37,46.37 0 0 1 18.31,-12.21c-3.15,-4.56 -3.37,-10.15 -0.32,-13.62a13.38,13.38 0 0 0 3.67,6.57c3.66,3.66 8.7,4.83 12.4,3.21a8.35,8.35 0 0 0 2.15,-1.53c4,-4 3.21,-11.34 -1.81,-16.36a14.87,14.87 0 0 0 -7.3,-4.08c3.85,-3.39 10.06,-3.14 15.13,0.36a51.53,51.53 0 0 1 13.57,-20.34l0.08,0a51.53,51.53 0 0 1 13.57,20.34c5.06,-3.5 11.28,-3.75 15.13,-0.36a14.87,14.87 0 0 0 -7.3,4.08c-5,5 -5.83,12.34 -1.81,16.36a8.35,8.35 0 0 0 2.15,1.53c3.7,1.62 8.73,0.45 12.4,-3.21a13.38,13.38 0 0 0 3.61,-6.59c3.05,3.47 2.83,9.06 -0.32,13.62a46.37,46.37 0 0 1 18.31,12.21l0,0a46.37,46.37 0 0 1 -18.31,12.21c3.15,4.56 3.37,10.15 0.32,13.62a13.38,13.38 0 0 0 -3.67,-6.57c-4.52,-4.51 -11.11,-5.24 -14.73,-1.63a7.54,7.54 0 0 0 -1.41,2l0,0.06a21.28,21.28 0 1 0 36.24,-0.27l-0.08,-0.12a11.54,11.54 0 0 0 -1.14,-1.44a10.33,10.33 0 0 0 -4.96,-3.08c2.8,-2.21 7.1,-1.8 10.48,0.82a35.79,35.79 0 0 1 10.18,-13.59l0,0a35.79,35.79 0 0 1 8.64,14.62c3.65,-2.24 8,-2.17 10.51,0.33a10.33,10.33 0 0 0 -5.22,2.55a11.73,11.73 0 0 0 -1.24,1.24l0,0a21.28,21.28 0 1 0 35.83,4.42l0,-0.06a7.54,7.54 0 0 0 -1.19,-2.13c-3.21,-4 -9.84,-4 -14.81,0a13.38,13.38 0 0 0 -4.36,6.14c-2.66,-3.78 -1.84,-9.31 1.78,-13.5a46.37,46.37 0 0 1 -16.89,-14.11l0,0a46.37,46.37 0 0 1 19.49,-10.18c-2.64,-4.87 -2.26,-10.45 1.15,-13.57a13.38,13.38 0 0 0 2.95,6.93c3.25,4 8.13,5.74 12,4.52a8.35,8.35 0 0 0 2.3,-1.29c4.43,-3.56 4.41,-10.93 0,-16.46a14.87,14.87 0 0 0 -6.82,-4.84c4.19,-3 10.34,-2 15,2a51.53,51.53 0 0 1 15.62,-18.79l0,0a51.53,51.53 0 0 1 11.3,21.68c5.41,-2.94 11.61,-2.51 15.08,1.27a14.87,14.87 0 0 0 -7.7,3.27c-5.51,4.46 -7.08,11.65 -3.54,16.12a8.35,8.35 0 0 0 2,1.76c3.5,2 8.63,1.39 12.67,-1.86a13.38,13.38 0 0 0 4.36,-6.14c2.66,3.78 1.84,9.31 -1.78,13.5a46.37,46.37 0 0 1 16.89,14.11l0,0a46.37,46.37 0 0 1 -19.51,10.17c2.64,4.87 2.26,10.45 -1.15,13.57a13.38,13.38 0 0 0 -2.95,-6.93c-4,-5 -10.48,-6.41 -14.46,-3.2a7.54,7.54 0 0 0 -1.62,1.82l0,0.06a21.28,21.28 0 1 0 37.61,8l0,-0.07a10.82,10.82 0 0 0 -1.77,-3.78a10.33,10.33 0 0 0 -4.54,-3.63c3,-1.89 7.25,-1 10.33,2a35.79,35.79 0 0 1 11.61,-12.4l0,0a35.79,35.79 0 0 1 7,15.48c3.87,-1.82 8.15,-1.29 10.41,1.48a10.33,10.33 0 0 0 -5.47,2a10.85,10.85 0 0 0 -2.59,2.6l0,0a21.28,21.28 0 1 0 38.42,7.68l0,-0.06a7.54,7.54 0 0 0 -0.65,-2.35c-2.16,-4.64 -8.61,-6.21 -14.39,-3.51a13.38,13.38 0 0 0 -5.7,4.92c-1.68,-4.3 0.44,-9.48 5,-12.69a46.37,46.37 0 0 1 -13,-17.73l0,0a46.37,46.37 0 0 1 21.38,-5.21c-1.4,-5.36 0.3,-10.69 4.36,-12.9a13.38,13.38 0 0 0 1.2,7.43c2.19,4.7 6.52,7.52 10.55,7.26a8.35,8.35 0 0 0 2.54,-0.71c5.15,-2.4 6.9,-9.56 3.9,-16a14.87,14.87 0 0 0 -5.47,-6.33c4.78,-1.87 10.53,0.49 14.1,5.51a51.53,51.53 0 0 1 19.7,-14.47l0,0a37.09,37.09 0 0 1 3.5,17.84a8,8 0 0 1 8.18,-0.18c-4.93,4.22 -9.42,12.17 -11.26,19.04z" class="cls-4"/>
  <path id="svg_11" d="m579.790003,187.699999a5.52,5.52 0 0 1 -1.29,-0.15a1133.94,1133.94 0 0 0 -529.43,0a5.5,5.5 0 0 1 -2.57,-10.7a1145,1145 0 0 1 534.57,0a5.5,5.5 0 0 1 -1.28,10.85z" class="cls-4"/>
  <polygon id="svg_12" points="313.8 136.48 326 124.27 313.8 112.07 313.76 112.07 301.55 124.27 313.76 136.48 313.8 136.48"/>
  <path id="svg_13" d="m388.350003,121.349999a5.34,5.34 0 1 0 5,5.61a5.34,5.34 0 0 0 -5,-5.61zm-0.39,7.32a2,2 0 1 1 2.09,-1.88a2,2 0 0 1 -2.09,1.88z"/>
  <path id="svg_14" d="m371.000003,120.429999a5.34,5.34 0 1 0 5,5.61a5.34,5.34 0 0 0 -5,-5.61zm-0.39,7.32a2,2 0 1 1 2.09,-1.88a2,2 0 0 1 -2.09,1.88z"/>
  <path id="svg_15" d="m380.410003,107.119999a5.34,5.34 0 1 0 5,5.61a5.34,5.34 0 0 0 -5,-5.61zm-0.39,7.32a2,2 0 1 1 2.09,-1.88a2,2 0 0 1 -2.09,1.87l0,0.01z"/>
  <path id="svg_16" d="m482.210003,67.459999a28.84,28.84 0 0 0 -16,3.11a38.63,38.63 0 0 0 -15.32,15l3.77,-34.84c1,-9.59 -0.18,-14.57 -0.18,-14.57a53.69,53.69 0 0 0 -3.29,14.2l-3.77,34.84a38.63,38.63 0 0 0 -11.77,-17.88a28.84,28.84 0 0 0 -14.91,-6.52l0,0c-0.16,0.17 4.19,2 12.14,8.53c7.71,6.59 14.23,18.91 13.15,28.91l0,0.41a1.74,1.74 0 0 0 3.47,0.38l0,-0.41c1.08,-10 10.09,-20.64 19,-25.44c9.16,-4.67 13.81,-5.54 13.69,-5.74l0.02,0.02z"/>
  <path id="svg_17" d="m599.010003,103.409999c2.68,-7.43 3.47,-16.22 4.22,-22s5.28,-11.74 5.28,-11.74s-4.75,-0.53 -8.57,9.37c0,0 -2.11,16.88 -5.28,23.48s-10.79,9.82 -10.79,9.82a38.63,38.63 0 0 0 -7.15,-20.18a28.84,28.84 0 0 0 -13,-9.84l0,0c-0.19,0.12 3.59,3 9.75,11.19c5.91,8.24 9.3,21.76 5.86,31.22l-0.14,0.38a1.74,1.74 0 0 0 3.28,1.19l0.14,-0.38c3.48,-9.41 13.72,-15.12 16.4,-22.51z"/>
  <path id="svg_18" d="m519.140003,136.919999a5.34,5.34 0 1 0 4.38,6.15a5.34,5.34 0 0 0 -4.38,-6.15zm-1.27,7.23a2,2 0 1 1 2.29,-1.63a2,2 0 0 1 -2.29,1.63z"/>
  <path id="svg_19" d="m502.010003,134.029999a5.34,5.34 0 1 0 4.38,6.15a5.34,5.34 0 0 0 -4.38,-6.15zm-1.22,7.22a2,2 0 1 1 2.29,-1.63a2,2 0 0 1 -2.29,1.64l0,-0.01z"/>
  <path id="svg_20" d="m512.870003,121.879999a5.34,5.34 0 1 0 4.38,6.15a5.34,5.34 0 0 0 -4.38,-6.15zm-1.22,7.22a2,2 0 1 1 2.29,-1.63a2,2 0 0 1 -2.29,1.63z"/>
  <rect id="svg_21" transform="rotate(1.2999999523162842 -82.80000305175776,-29.940000534057575) " height="3.83" width="17.94" y="110.649999" x="340.219997"/>
  <rect id="svg_22" transform="matrix(1,0.02,-0.02,1,-82.67,-29.94) " height="3.83" width="17.94" y="146.26" x="422.89"/>
  <rect id="svg_23" transform="rotate(-39.06999969482422 -62.840000152587855,348.260009765625) " height="17.26" width="17.26" y="491.03001" x="459.38"/>
  <rect id="svg_24" transform="rotate(4.590000152587891 -72.84999847412142,-59.509998321533224) " height="3.83" width="17.94" y="84.540002" x="414.780002"/>
  <rect id="svg_25" transform="rotate(4.590000152587891 -72.40000152587918,-59.45000076293945) " height="3.83" width="17.94" y="90.259999" x="414.779998"/>
  <rect id="svg_26" transform="rotate(8.140000343322754 -58.79000091552731,-98.3099975585938) " height="3.83" width="17.94" y="52.870002" x="494.639999"/>
  <rect id="svg_27" transform="rotate(8.140000343322754 -57.99999999999974,-98.12999725341797) " height="3.83" width="17.94" y="58.660003" x="494.63"/>
  <rect id="svg_28" transform="matrix(0.98,0.19,-0.19,0.98,-42.81,-138.27) " height="3.83" width="17.94" y="162.56" x="621.87"/>
  <rect id="svg_29" transform="rotate(11.069999694824219 -41.77000045776416,-137.96000671386716) " height="3.83" width="17.94" y="30.159993" x="579.01"/>
  <path id="svg_30" d="m234.170003,126.959999a5.34,5.34 0 1 0 5,-5.61a5.34,5.34 0 0 0 -5,5.61zm3.34,-0.18a2,2 0 1 1 2.09,1.88a2,2 0 0 1 -2.09,-1.86l0,-0.02z"/>
  <path id="svg_31" d="m251.520003,126.039999a5.34,5.34 0 1 0 5,-5.61a5.34,5.34 0 0 0 -5,5.61zm3.34,-0.18a2,2 0 1 1 2.09,1.88a2,2 0 0 1 -2.08,-1.88l-0.01,0z"/>
  <path id="svg_32" d="m242.110003,112.729999a5.34,5.34 0 1 0 5,-5.61a5.34,5.34 0 0 0 -5,5.61zm3.34,-0.18a2,2 0 1 1 2.09,1.88a2,2 0 0 1 -2.09,-1.88z"/>
  <path id="svg_33" d="m145.360003,67.459999a28.84,28.84 0 0 1 16,3.11a38.63,38.63 0 0 1 15.32,15l-3.81,-34.89c-1,-9.59 0.18,-14.57 0.18,-14.57a53.69,53.69 0 0 1 3.29,14.2l3.77,34.84a38.63,38.63 0 0 1 11.76,-17.89a28.84,28.84 0 0 1 15,-6.46l0,0c0.16,0.17 -4.19,2 -12.14,8.53c-7.71,6.59 -14.23,18.91 -13.15,28.91l0,0.41a1.74,1.74 0 1 1 -3.47,0.38l0,-0.41c-1.08,-10 -10.09,-20.64 -19,-25.44c-9.16,-4.67 -13.81,-5.54 -13.69,-5.74l-0.06,0.02z"/>
  <path id="svg_34" d="m28.550003,103.409999c-2.68,-7.43 -3.47,-16.22 -4.22,-22s-5.28,-11.74 -5.28,-11.74s4.75,-0.53 8.57,9.37c0,0 2.11,16.88 5.28,23.48s10.77,9.85 10.77,9.85a38.63,38.63 0 0 1 7.15,-20.18a28.84,28.84 0 0 1 13,-9.84l0,0c0.19,0.12 -3.59,3 -9.75,11.19c-5.91,8.24 -9.3,21.76 -5.86,31.22l0.14,0.38a1.74,1.74 0 1 1 -3.28,1.19l-0.14,-0.38c-3.46,-9.44 -13.7,-15.15 -16.38,-22.54z"/>
  <path id="svg_35" d="m313.750003,93.289999a1.75,1.75 0 0 1 -1.74,-1.74l0,-0.41c0,-10 -7.81,-21.61 -16.18,-27.33c-8.61,-5.62 -13.13,-7 -13,-7.18l0,0a28.84,28.84 0 0 1 15.55,4.81a38.63,38.63 0 0 1 13.62,16.51l0,-35c0,-9.65 1.74,-14.47 1.74,-14.47l0.06,0s1.74,4.82 1.74,14.47l0,35a38.63,38.63 0 0 1 13.63,-16.51a28.84,28.84 0 0 1 15.55,-4.81l0,0c0.14,0.18 -4.39,1.55 -13,7.18c-8.37,5.73 -16.18,17.31 -16.18,27.33l0,0.41a1.75,1.75 0 0 1 -1.74,1.74l-0.05,0z"/>
  <path id="svg_36" d="m104.050003,143.069999a5.34,5.34 0 1 0 4.38,-6.15a5.34,5.34 0 0 0 -4.38,6.15zm3.3,-0.56a2,2 0 1 1 2.29,1.63a2,2 0 0 1 -2.29,-1.63z"/>
  <path id="svg_37" d="m121.180003,140.179999a5.34,5.34 0 1 0 4.38,-6.15a5.34,5.34 0 0 0 -4.38,6.15zm3.3,-0.56a2,2 0 1 1 2.29,1.63a2,2 0 0 1 -2.29,-1.62l0,-0.01z"/>
  <path id="svg_38" d="m110.320003,128.029999a5.34,5.34 0 1 0 4.38,-6.15a5.34,5.34 0 0 0 -4.38,6.15zm3.3,-0.56a2,2 0 1 1 2.25,1.63a2,2 0 0 1 -2.25,-1.63z"/>
  <rect id="svg_39" transform="rotate(178.6999969482422 652.6599731445312,256.4400024414063) " height="3.83" width="17.94" y="397.030002" x="1011.519973"/>
  <rect id="svg_40" transform="rotate(178.6999969482422 653.0399780273438,267.77999877929693) " height="3.83" width="17.94" y="414.039999" x="1012.029978"/>
  <rect id="svg_41" transform="rotate(-50.93000030517578 -104.23000335693365,244.61000061035153) " height="17.26" width="17.26" y="387.380001" x="156.109997"/>
  <rect id="svg_42" transform="rotate(175.41000366210938 531.0200195312499,246.9700012207031) " height="3.83" width="17.94" y="391.020001" x="825.27002"/>
  <rect id="svg_43" transform="rotate(175.41000366210938 532.3800048828124,258.2200012207031) " height="3.83" width="17.94" y="407.930001" x="827.090005"/>
  <rect id="svg_44" transform="rotate(171.86000061035156 407.989990234375,250.80999755859375) " height="3.83" width="17.94" y="401.989998" x="636.43999"/>
  <rect id="svg_45" transform="rotate(171.86000061035156 410.39001464843756,261.8699951171875) " height="3.83" width="17.94" y="418.659995" x="639.640015"/>
  <rect id="svg_46" transform="rotate(168.92999267578125 280.2699890136718,273.22000122070307) " height="3.83" width="17.94" y="435.780001" x="440.279989"/>
  <rect id="svg_47" transform="rotate(168.92999267578125 283.489990234375,284.04998779296875) " height="3.83" width="17.94" y="452.169988" x="444.58999"/>
  <rect id="svg_48" transform="rotate(-31.469999313354492 -79.55000305175771,352.8800048828125) " height="9.13" width="9.13" y="523.170005" x="581.299997" class="cls-3"/>
  <rect id="svg_49" transform="rotate(-39.06999969482422 -62.840000152587855,348.25) " height="8.67" width="8.67" y="495.32" x="463.67" class="cls-3"/>
  <polygon id="svg_50" points="313.76 130.41 307.63 124.27 313.76 118.14 313.8 118.14 319.93 124.27 313.8 130.41 313.76 130.41" class="cls-3"/>
  <path id="svg_51" d="m49.780003,160.929999l-7.79,-4.77l4.77,-7.79l7.79,4.77l-4.77,7.79z" class="cls-3"/>
  <rect id="svg_52" transform="matrix(0.63,-0.78,0.78,0.63,-104.24,244.59) " height="8.67" width="8.67" y="147.07" x="264.64" class="cls-3"/>
  <path id="svg_53" d="m464.200003,215.799999a92.4,92.4 0 1 0 92.39,92.4a92.5,92.5 0 0 0 -92.39,-92.4zm67.93,122.6a74.28,74.28 0 0 1 -5.84,10.66q-1.46,2.21 -3.07,4.31a74.4,74.4 0 0 1 -47.8,28.34c-1.73,0.26 -3.49,0.45 -5.25,0.59c-2,0.16 -4,0.26 -6,0.26s-4.11,-0.11 -6.13,-0.27c-1.77,-0.15 -3.52,-0.33 -5.25,-0.6a74.4,74.4 0 0 1 -47.63,-28.32q-1.61,-2.1 -3.07,-4.31a74.28,74.28 0 0 1 -5.84,-10.66c-0.72,-1.61 -1.39,-3.24 -2,-4.9a74.36,74.36 0 0 1 0.14,-51c0.61,-1.66 1.3,-3.28 2,-4.88a74.33,74.33 0 0 1 5.95,-10.72c1,-1.47 2,-2.9 3.12,-4.29a74.39,74.39 0 0 1 47.41,-27.92c1.73,-0.27 3.48,-0.45 5.25,-0.59c2,-0.16 4,-0.27 6.07,-0.27s4.18,0.11 6.24,0.28c1.77,0.15 3.52,0.34 5.25,0.61a74.39,74.39 0 0 1 47.2,27.9c1.09,1.39 2.13,2.82 3.12,4.29a74.31,74.31 0 0 1 5.95,10.72c0.72,1.6 1.41,3.22 2,4.88a74.36,74.36 0 0 1 0.14,51c-0.57,1.65 -1.22,3.29 -1.96,4.89z" class="cls-2"/>
  <path id="svg_54" d="m453.200003,283.259999a27,27 0 0 1 4.8,-1.6a27.18,27.18 0 0 1 12.57,0a27.31,27.31 0 0 1 10,4.67a27.22,27.22 0 0 1 10.82,19.39c0.07,0.81 0.11,1.62 0.11,2.44c0,0.66 0,1.31 -0.08,2a27.24,27.24 0 0 1 -54.34,0c0,-0.65 -0.08,-1.3 -0.08,-2c0,-0.82 0,-1.64 0.11,-2.44a27.22,27.22 0 0 1 16.14,-22.49l-0.05,0.03z" class="cls-2"/>
  <path id="svg_55" d="m527.990003,280.959999a112.87,112.87 0 0 1 -32.82,18.25a32.24,32.24 0 0 0 -7,-12.62a112.85,112.85 0 0 1 32.93,-18.07a69.32,69.32 0 0 1 6.89,12.44z" class="cls-2"/>
  <path id="svg_56" d="m457.150003,239.189999a69.67,69.67 0 0 1 14.28,0a112.85,112.85 0 0 1 0.06,37.58a32,32 0 0 0 -14.42,0a112.84,112.84 0 0 1 0.07,-37.56l0.01,-0.02z" class="cls-2"/>
  <path id="svg_57" d="m407.360003,268.509999a112.85,112.85 0 0 1 32.93,18.07a32.24,32.24 0 0 0 -7,12.62a112.87,112.87 0 0 1 -32.82,-18.25a69.32,69.32 0 0 1 6.89,-12.44z" class="cls-2"/>
  <path id="svg_58" d="m400.260003,335.059999a112.92,112.92 0 0 1 32.85,-18.33a32.21,32.21 0 0 0 6.92,12.78a112.93,112.93 0 0 1 -33,18a69.3,69.3 0 0 1 -6.77,-12.45z" class="cls-2"/>
  <path id="svg_59" d="m464.200003,377.559999a69.85,69.85 0 0 1 -7.14,-0.37a113,113 0 0 1 -0.23,-37.61a32,32 0 0 0 14.58,0a113,113 0 0 1 -0.23,37.59q-3.44,0.38 -6.98,0.39z" class="cls-2"/>
  <path id="svg_60" d="m521.330003,347.469999a112.93,112.93 0 0 1 -33,-18a32.21,32.21 0 0 0 6.92,-12.78a112.92,112.92 0 0 1 32.85,18.33a69.3,69.3 0 0 1 -6.77,12.45z" class="cls-2"/>
  <path id="svg_61" d="m464.290003,220.189999a5,5 0 1 0 5,5a5,5 0 0 0 -5,-5zm0,7a2,2 0 1 1 2,-2a2,2 0 0 1 -2,2z"/>
  <path id="svg_62" d="m464.120003,395.689999a5,5 0 1 0 -5,-5a5,5 0 0 0 5,5zm0,-7a2,2 0 1 1 -2,2a2,2 0 0 1 2,-2z"/>
  <path id="svg_63" d="m541.060003,265.609999a5,5 0 1 0 -2,6.79a5,5 0 0 0 2,-6.79zm-6.13,3.38a2,2 0 1 1 2.72,0.78a2,2 0 0 1 -2.71,-0.78l-0.01,0z"/>
  <path id="svg_64" d="m387.340003,350.279999a5,5 0 1 0 2,-6.79a5,5 0 0 0 -2,6.79zm6.13,-3.38a2,2 0 1 1 -2.72,-0.78a2,2 0 0 1 2.72,0.78z"/>
  <path id="svg_65" d="m389.300003,272.399999a5,5 0 1 0 -2,-6.79a5,5 0 0 0 2,6.79zm1.45,-2.63a2,2 0 1 1 2.72,-0.78a2,2 0 0 1 -2.72,0.81l0,-0.03z"/>
  <path id="svg_66" d="m539.100003,343.489999a5,5 0 1 0 2,6.79a5,5 0 0 0 -2,-6.79zm-1.45,2.63a2,2 0 1 1 -2.72,0.78a2,2 0 0 1 2.72,-0.79l0,0.01z"/>
  <path id="svg_67" d="m464.290003,296.189999a12,12 0 1 0 12,12a12,12 0 0 0 -12,-12zm0,19a7,7 0 1 1 7,-7a7,7 0 0 1 -7,7z"/>
  <path id="svg_68" d="m464.200003,210.799999a97.4,97.4 0 1 0 97.39,97.4a97.51,97.51 0 0 0 -97.39,-97.4zm0,189.79a92.4,92.4 0 1 1 92.39,-92.4a92.5,92.5 0 0 1 -92.39,92.4z"/>
  <path id="svg_69" d="m533.990003,282.509999c-0.61,-1.66 -1.3,-3.28 -2,-4.88a74.33,74.33 0 0 0 -5.95,-10.72c-1,-1.47 -2,-2.9 -3.12,-4.29a74.39,74.39 0 0 0 -47.2,-27.9c-1.73,-0.27 -3.48,-0.46 -5.25,-0.61c-2.06,-0.17 -4.14,-0.28 -6.24,-0.28s-4.07,0.11 -6.07,0.27c-1.77,0.14 -3.52,0.33 -5.25,0.59a74.39,74.39 0 0 0 -47.38,27.93c-1.09,1.39 -2.13,2.82 -3.12,4.29a74.33,74.33 0 0 0 -5.95,10.72c-0.72,1.6 -1.41,3.22 -2,4.88a74.36,74.36 0 0 0 -0.14,51c0.6,1.67 1.28,3.29 2,4.9a74.29,74.29 0 0 0 5.84,10.66q1.46,2.21 3.07,4.31a74.4,74.4 0 0 0 47.63,28.32c1.73,0.27 3.49,0.45 5.25,0.6c2,0.17 4.07,0.27 6.13,0.27s4,-0.1 6,-0.26c1.77,-0.14 3.52,-0.32 5.25,-0.59a74.4,74.4 0 0 0 47.8,-28.34q1.61,-2.1 3.07,-4.31a74.29,74.29 0 0 0 5.84,-10.66c0.72,-1.61 1.39,-3.24 2,-4.9a74.36,74.36 0 0 0 -0.14,-51l-0.07,0zm-5.93,-1.55a112.87,112.87 0 0 1 -32.82,18.25a32.24,32.24 0 0 0 -7,-12.62a112.85,112.85 0 0 1 32.93,-18.07a69.32,69.32 0 0 1 6.82,12.44l0.07,0zm-51.35,-41a69.4,69.4 0 0 1 41.16,24.35a119.17,119.17 0 0 0 -33.44,18.79a32.27,32.27 0 0 0 -8.12,-4.79a119.11,119.11 0 0 0 0.32,-38.35l0.08,0zm-19.49,-0.78a69.67,69.67 0 0 1 14.28,0a112.85,112.85 0 0 1 0.06,37.58a32,32 0 0 0 -14.42,0a112.84,112.84 0 0 1 0.07,-37.56l0.01,-0.02zm-3.94,44.08a27,27 0 0 1 4.8,-1.6a27.18,27.18 0 0 1 12.57,0a27.31,27.31 0 0 1 10,4.67a27.22,27.22 0 0 1 10.82,19.39c0.07,0.81 0.11,1.62 0.11,2.44c0,0.66 0,1.31 -0.08,2a27.24,27.24 0 0 1 -54.34,0c0,-0.65 -0.08,-1.3 -0.08,-2c0,-0.82 0,-1.64 0.11,-2.44a27.22,27.22 0 0 1 16.14,-22.49l-0.05,0.03zm-1.26,-43.32a119.13,119.13 0 0 0 0.31,38.31a32.27,32.27 0 0 0 -8.27,4.85a119.17,119.17 0 0 0 -33.44,-18.79a69.39,69.39 0 0 1 41.32,-24.37l0.08,0zm-44.58,28.58a112.85,112.85 0 0 1 32.93,18.07a32.24,32.24 0 0 0 -7,12.62a112.87,112.87 0 0 1 -32.82,-18.25a69.32,69.32 0 0 1 6.81,-12.45l0.08,0.01zm-12.49,39.68a69,69 0 0 1 3.71,-22.32a119.22,119.22 0 0 0 33.67,18.29a31.45,31.45 0 0 0 -0.06,7.58a119.13,119.13 0 0 0 -33.74,18.37a69,69 0 0 1 -3.66,-21.93l0.08,0.01zm17.91,-12.82a112.92,112.92 0 0 1 32.85,-18.33a32.21,32.21 0 0 0 6.92,12.78a112.93,112.93 0 0 1 -33,18a69.3,69.3 0 0 1 -19.37,27.23l12.6,-39.68zm10,16.63a119.12,119.12 0 0 0 33.43,-18.65a32.29,32.29 0 0 0 8.35,5a119.07,119.07 0 0 0 -0.16,38.39a69.4,69.4 0 0 1 -54.26,14.93l12.64,-39.67zm54,25.87a69.85,69.85 0 0 1 -7.14,-0.37a113,113 0 0 1 -0.23,-37.61a32,32 0 0 0 14.58,0a113,113 0 0 1 -0.23,37.59q-16.1,40.06 -19.64,40.07l12.66,-39.68zm12.18,-1.09a119.06,119.06 0 0 0 -0.14,-38.36a32.28,32.28 0 0 0 8.51,-5.07a119.12,119.12 0 0 0 33.43,18.65a69.39,69.39 0 0 1 -54.45,64.45l12.65,-39.67zm44.95,-29a112.93,112.93 0 0 1 -33,-18a32.21,32.21 0 0 0 6.92,-12.78a112.92,112.92 0 0 1 32.85,18.33a69.3,69.3 0 0 1 -19.43,52.13l12.66,-39.68zm8.66,-17.35a119.13,119.13 0 0 0 -33.74,-18.37a31.45,31.45 0 0 0 -0.06,-7.58a119.22,119.22 0 0 0 21.02,21.38a69.08,69.08 0 0 1 0.13,44.25l12.65,-39.68z"/>
  <path d="m304.970003,436.799999c-0.18,0.55 -0.76,0.94 -1.31,1.33a1.84,1.84 0 0 1 -1.36,-1.72l0.19,-1c0.78,0.58 2.89,-0.2 2.48,1.36l0,0.03z" class="cls-4" id="path2209"/>
  <path d="m311.870003,437.589999c0,1.15 -0.94,1.52 -1.91,1.72a2.72,2.72 0 0 1 -2.85,-0.94c0.2,-1 -0.41,-2.1 0.57,-2.49c1.34,0.78 3.25,0.19 4.19,1.71z" class="cls-4" id="path2211"/>
  <path d="m316.270003,439.309999l0,0.39c-1.13,0.58 -1.32,-1 -2.1,-1.33c0.6,-0.39 2.32,-0.19 2.1,0.94z" class="cls-4" id="path2217"/>
  <path id="svg_70" d="m236.750003,449.639999a1.68,1.68 0 0 1 0.76,0.8a2.61,2.61 0 0 1 -1.33,3.08c3.63,2.3 2.67,7.07 2.85,11.3c-0.18,2.67 0.39,5.56 -2.3,6.71a23.12,23.12 0 0 0 -7.47,-0.76c-2.67,0.55 -3.06,3.63 -4.6,5.55l2.32,1.54a3.58,3.58 0 0 1 -0.39,3.06c1,0.37 2.48,0.57 3.24,-0.17c2.3,-1 3.25,-4.43 6.14,-3.86a3.63,3.63 0 0 1 1.34,2.69a17,17 0 0 1 -7.09,8.44c3.84,1.72 6,-3.65 9.59,-2.3c-1,2.86 -3.63,5 -4.8,7.85c-2.3,1 -4.6,2.11 -6.9,2.89l0,0.58a8.06,8.06 0 0 0 4,0.94c5.18,1.15 9.24,-3.08 11.71,-6.7c0.74,-1.33 1.74,-0.59 2.48,0.38c1.36,5 -2.67,8.62 -6.12,11.31c-3.65,1.91 -8.25,2.48 -12.28,2.48c-0.37,0.78 0.39,1.54 1,1.92c9.59,3.08 15.91,-5.53 22.22,-10.91c1.54,-1 3.26,-3.45 5,-1.93l-6.51,14c-4.6,9.58 -12.63,18 -23.58,19c-8,2.89 -13,-5 -19.92,-6.7a4.49,4.49 0 0 0 1.34,3.08c8.25,6.51 20.9,9 30.88,4.21c13.21,-4.6 15.32,-19.73 23.35,-29.13l2.34,-1.55a4.5,4.5 0 0 1 3.84,0.58c0.37,0.59 0.37,1.33 -0.41,1.52c-4.78,0.41 -6.71,5.77 -9,9.22c-1.69,5.54 -4.4,10.74 -5.73,16.47c5,-1.13 9,-4.21 12.48,-8c0.56,-0.39 1.69,-0.76 2.08,-0.17c-0.76,1.91 -2.67,4.38 -2.84,6.7c1.89,0 3,-2.12 4.38,-3.45c3.65,-3.84 9,-1.93 13,-0.21c3.67,-0.2 6.75,-3.26 7.86,-6.32c0.6,-0.55 1.17,-1.32 1.93,-0.55a6.3,6.3 0 0 1 -0.2,3.24c-0.93,3.08 -4,4.8 -6.7,6.16c-4.43,3.24 -8.25,-3.08 -12.46,-1c0.57,1.17 1.93,1.93 1.35,3.47a6.62,6.62 0 0 0 6.14,4.38c3.45,-0.19 5.92,-2.28 8.83,-4c2.65,-1.72 2.84,-7.1 6.49,-5.93c1.36,2.85 1.15,6.88 4,9.2c3.84,1.52 7.31,-0.58 9.79,-3.47c8.07,-9.76 11.11,-21.64 19.74,-31.23c1.74,-1.93 2.69,-5.18 5.77,-5.94c0.18,0.19 0.76,0.37 0.76,0.76c0,4.79 -4.6,7.68 -6.9,11.5c-2.49,4.79 0.76,9.38 3.06,13.22l0.2,4.61a23.21,23.21 0 0 0 -2.3,5l4,-0.37c2.11,-0.78 4.43,-2.91 4.82,-5.38c1.89,-3.65 -1.17,-7.86 1.54,-10.9c1.32,-4 -0.22,-7.13 -1.17,-11c0,-0.78 0.37,-1.74 1.34,-1.74c5,2.32 3.26,8.64 5.75,12.69c0.57,0.16 1.35,-0.58 1.91,-1c2.11,-3.06 2.11,-7.47 0.57,-10.92a8.14,8.14 0 0 1 2.88,-7.66c2.3,0.39 1.54,3.43 2.3,4.79c1,1.91 2.11,3.83 4.24,4.8c1.14,-1.36 0.56,-3.27 0.38,-5c-1.36,-5.93 -7.89,-7.87 -9.59,-13.41c0.2,-2 -1.34,-5.58 1.33,-6.16c1.73,1.54 1,4.42 2.88,6c4,1.72 6.89,5.17 9.21,8.42a9.18,9.18 0 0 0 0,-4c1,-6.32 -6.54,-7.49 -8.62,-12.48c-0.78,-0.95 -0.39,-2.49 0.54,-3.43c2.31,-3.82 -2.28,-6.53 -0.93,-10.37c4,-2.1 4.8,4.6 8.62,3.26l0.19,-3.43c-3.45,-4.23 -1.73,-11.33 -1.73,-16.51c2.31,-0.94 1,-3.43 1.16,-5.19c-1,-0.15 -1.36,0.78 -2.3,0.43c-2.3,0.35 -2.88,4.41 -5.18,3.43c-0.2,-2.69 2.1,-5.36 3.24,-7.87c-0.36,-0.94 0,-2.11 -0.18,-2.85c-1.91,-0.39 -3.43,-0.19 -4.6,1.33c-1.52,0 -2.48,1.93 -4,0.93c-0.74,-1.87 1.35,-3.6 2.52,-5c2.1,-3.25 -1.35,-5.94 -1.35,-9a77.62,77.62 0 0 0 -10,-2.34a12.74,12.74 0 0 1 -2.51,-0.57c-7.27,-0.76 -13.78,-2.49 -22,-1.91c-0.76,1.35 -1.5,2.89 -2.28,4.41c-2.12,2.69 -5.57,2.3 -8.42,3.62c-1.73,0.59 -3.66,0.59 -4.64,2.13a1.8,1.8 0 0 0 0.8,2.47c0.55,-0.93 1.31,-2.47 3,-1.89c1.72,0 2.89,1.33 3.65,2.48a4.63,4.63 0 0 1 -0.76,3.08c-1.74,1.32 -3.45,-0.78 -4.62,-1.15c-1.5,1.54 -0.18,4.6 0.6,6.51c2.28,0.41 4.41,1.54 7.08,1c4.6,1.72 9.61,2.69 14,5.19c1.35,0.74 2.48,3.06 4,2.86c0,-1 -1.15,-1 -1.35,-1.73c-0.39,-0.59 -0.39,-1.13 0.2,-1.52c0.76,-0.78 1.91,0 2.67,0.39a6.94,6.94 0 0 1 3.84,6.31c-0.37,3.26 -1,6.34 -4.21,7.86c-2.89,-0.2 0.19,-2.3 -0.59,-4c-0.19,-0.56 -1,-0.56 -1.32,-0.93c-1.35,-2.89 -3.1,-6.71 -6.53,-7.29l0,0.39c4.19,3.08 5.38,7.66 5.55,12.65a8.11,8.11 0 0 1 -3.27,4a35.8,35.8 0 0 1 -14.35,1c1.54,-4 7.47,-0.39 9.59,-3.63c-4,-1 -7.11,0.78 -11.13,0c-1.36,-0.6 -1.73,-2.71 -3.84,-1.91c-3.25,0.57 -0.56,3.43 -1.34,5.54c2.3,2.49 5.18,2.32 8.63,2.49c2.11,-0.17 2.11,2.11 1.93,3.67s-0.19,3 -1.17,4.19l-7.46,1.17c-1,0.37 -1.15,2.12 -2.5,1.89c-5.55,-1.52 -10,3.29 -15,4.42l-9,0c-1.74,-0.37 -1.56,-2.88 -3.3,-3.08c0,6.53 -5.34,11.52 -10.89,13.63a1.13,1.13 0 0 1 -1.35,-1c0.39,-0.94 0.94,-1.72 1.93,-1.72c3.06,-2.5 7.64,-6.12 6.49,-10.33c-3.23,-1 -4.75,-4.44 -5.75,-7.49c-1.32,-6.35 -1.73,-14.58 4,-18.22a6.9,6.9 0 0 0 1.52,-6.51c-1.33,-1.15 -1.72,-2.52 -2.48,-3.84l0,0l0,0l-2.66,-0.49a2.23,2.23 0 0 1 -2.19,0.92c-1,0.16 -0.68,-0.79 -0.58,-1.43l-1.49,-0.27a4.54,4.54 0 0 1 -1.19,2.09a14.56,14.56 0 0 1 -4.77,1.52c-2.69,-0.78 -6.24,-1.09 -6.53,-6.18l-1,0.06a3.43,3.43 0 0 1 -2.67,2.1c1,2.11 2.5,5.15 1,7.88c-1.15,1.91 -2.87,3.82 -5.38,3.62a3,3 0 0 1 -1.66,-0.15l-0.5,2.07zm92.11,-29.63c-1.35,1.91 -4.41,0 -5.38,2.49c-3.43,0.2 -0.92,-5 -4.78,-5c-0.37,-0.19 -0.37,-0.6 -0.37,-1c3.43,-2.87 6.9,0.76 10.35,1.15l0,0c0.07,2.69 -0.13,3.67 -0.32,4.43l0.5,-2.07zm-79.49,45.61c-1.34,2.49 -3.25,6 -6.53,6.16c-0.76,-1.72 1.35,-2.73 2.28,-4.06c3.84,-4 1.17,-8.61 3.28,-13.21c2.15,4.56 1,9.92 0.47,13.18l0.5,-2.07zm91.75,-36.98c1,0 2.11,0.18 2.48,1c-0.2,2.3 -2.67,2.12 -4,2.88c-0.58,-1 -0.19,-1.54 -0.39,-2.49a5.92,5.92 0 0 1 -78.12,46.29l80.03,-47.68zm-6.31,-17.64c0.56,-1.52 2.47,-0.76 3,-2.49c1,-0.37 1.34,0.58 1.34,1.34c0,1 -0.95,1.54 -1.71,1.93c-80.97,47.68 -82.29,48.02 -82.66,46.9l80.03,-47.68zm0.37,5.38a3.12,3.12 0 0 1 3.64,-1.15c0.57,1.15 -0.78,1.91 -1.34,2.48c-81.01,47.68 -82.33,47.49 -82.33,46.35l80.03,-47.68zm0.56,6.71c0,-1.93 1.91,-1.54 2.89,-2.89c1,0 1.54,0.2 1.91,1l0,0c-0.37,1.54 -1.91,1.73 -3.06,2.11l-1.74,-0.22zm4.8,23.19c-0.59,-0.39 -1.35,-0.21 -1.35,-1c2.3,-1.54 5.58,-2.13 8.25,-2.5l0.56,0.57c-81.74,49.84 -84.63,51.36 -87.49,50.61l80.03,-47.68zm68.24,-35.86l0,0c0,1.36 -1.91,1.91 -3.26,2.32a2.71,2.71 0 0 1 -1.32,-0.41c-79.27,45.77 -76.99,45.96 -75.45,45.77l80.03,-47.68zm-23.37,28.18c3.82,-1.91 5.94,-7.29 10.35,-8.61l0.54,0.58a46.94,46.94 0 0 1 -7.07,8.81a3.56,3.56 0 0 1 -3.63,0.57c-80.42,47.5 -80.81,46.71 -80.22,46.33l80.03,-47.68zm-4.82,-6.7c0.78,-0.78 3.1,-1.17 3.45,0.19l0,0c-0.74,3.26 -5.16,3.43 -6.29,6.71c-1,0.39 -2.71,0.58 -3.08,-0.2c-79.1,44.6 -75.24,43.85 -74.11,40.98l80.03,-47.68zm-27,2.48c0.39,-1.54 2.1,-2.87 3.45,-2.66l0,0a4.4,4.4 0 0 1 -1.93,3.8c-80.8,47.68 -81.76,47.28 -81.56,46.54l80.04,-47.68zm10.15,31.44c-0.17,-0.36 -0.76,0 -1.15,-0.18c-0.41,-1.54 0.59,-2.5 1.74,-3.25c1.32,-0.59 3.62,-0.77 4.23,0.75c-80.84,49.42 -83.51,48.84 -84.86,50.36l80.04,-47.68zm8,-16.46c-5.75,7.65 -16.47,5.35 -23,11.86c-0.78,1.34 -2.1,2.69 -3.62,2.69a5.36,5.36 0 0 1 0.37,-2.29c5.16,-5.55 11.89,-8.45 19.16,-10c2.3,-1.72 5.36,-2.48 6.51,-5.35c-78.45,47.89 -79.21,49.97 -79.41,50.77l79.99,-47.68zm-8.42,-7.09c-1,0 -1.73,0.19 -2.1,-0.78c0.54,-2.11 2.84,-1.72 4,-3.45c2.11,-1.54 3.67,-6 7.29,-5l0.18,0.54c-81.52,51.77 -85.73,54.63 -89.36,56.37l79.99,-47.68zm25.09,32c-1.91,1.93 -5.15,3.25 -7.86,2.12c-3.06,-1.34 -2.1,-4.79 -2.65,-7.31c0.55,-1.13 0.18,-3.43 1.91,-3.43l1.13,2.3c0.59,1.52 0.39,4.39 2.71,5c3.45,-0.78 4.19,-4.79 6.86,-6.33c-78.43,50.35 -80.36,53.18 -82.09,55.32l79.99,-47.67zm4.81,-28.56a25.18,25.18 0 0 1 4.76,-2.1c-0.74,6.7 -5.73,12.64 -11.66,16.09c-0.58,0 -1.15,0.59 -1.75,0.2c0.8,-4.21 6.55,-5 6.74,-9.59c-5.57,-1.74 -11,1.15 -15.53,3.45c-0.59,-0.18 -2.32,0.18 -2.13,-1.35c5.19,-1.71 6,-8.24 11.52,-9.39c6,-1.91 13.24,-2.48 16.47,-9l3.08,-4.4c0.76,0.19 0.57,1.13 1,1.91l0,0c-1.74,6.71 -8.62,12.47 -15.34,13.41c-0.2,0 -0.39,0.59 -0.78,0.59c-79.45,48.63 -77.34,48.43 -76.37,47.85l79.99,-47.67zm20.31,-15.32c-1.54,5 -3.25,10.15 -7.85,13.78c-0.39,-5.75 5.55,-9.18 5.36,-15c-79.04,45.63 -77.11,47.33 -77.5,48.89l79.99,-47.67zm-3.06,-20.35l-1.15,0a19.81,19.81 0 0 0 4.21,-14.37c-1,-1.91 -1.54,-4.23 -3.25,-5.75a0.93,0.93 0 0 1 0.56,-1.13c3.28,0.94 5.19,4.41 5.56,7.84c-79.99,53.05 -81.14,58.23 -85.92,61.08l79.99,-47.67zm8.64,22.45c-0.41,0.36 -0.78,1 -1.37,0.76c-1.71,-2.51 1,-4.6 0.22,-7.48c1,-0.57 0.56,-1.74 0.56,-2.49c-0.56,-2.68 -1.93,-4.78 -2.3,-7.47c0.77,-0.39 0,-2.11 1.35,-1.91l1.13,1.34l0,0c-76.74,52.64 -77.48,59.74 -79.58,64.92l79.99,-47.67z" class="cls-4"/>
  <polygon id="svg_71" points="235.57 675.47 235.57 675.47 235.57 675.47 235.57 675.47" class="cls-4"/>
  <path id="svg_72" d="m343.130003,595.749999c-1.17,-2.71 -1,-5.57 -3.27,-7.68a30,30 0 0 0 -5.36,-4.79l-1,1c1.54,1.54 1.72,3.65 1.93,6c0.57,1.52 2.5,3.25 1.74,4.81c-1.35,0.76 -2.52,-0.41 -3.47,-1.17c-2.5,-1.54 -2.5,-5 -2.69,-7.29l-0.94,0c-2.71,0.22 -1,2.5 -1.17,4c-0.39,3.49 2.69,5.2 3.45,8.46c-0.56,1.15 -1.34,-0.22 -2.1,0c-3.08,-2.13 -6,-5.58 -5.19,-9.79l-0.37,0c-1,-0.19 -1.54,1 -2.1,1.74c1.32,2.08 2.67,4.4 2.47,7.07c0,1.54 1.91,2.87 1,4c-1.74,0.21 -3.1,-1.33 -4.43,-2.48c-1.52,-2.47 -0.93,-5.53 -2.1,-8.07c-1.56,-0.35 -3.47,0.2 -5,0.59c-4.06,-1.33 -9.2,-0.39 -13.45,-1.33c-3.82,1.15 -7.84,3.28 -9.77,7.27c-0.93,0.61 -1.91,2.52 -3.25,1.54c-0.76,-2.86 -2.67,-0.19 -4.41,-1.13c-5.75,-4.23 -11.87,1.33 -16.66,4.58c-1.54,0.37 -3.47,1.72 -4.8,0.37c-0.6,-0.93 -1.73,-2.3 -0.19,-3.23c-0.2,-0.39 -0.59,-0.39 -1,-0.39c-1.34,0 -1.93,0.95 -2.3,2.1c-0.19,2.3 1.35,3.08 2.48,4.8c2.9,1.71 6.92,1.52 10.17,0.76c1.33,-2.48 4.21,-0.37 5.17,-3.45a2.58,2.58 0 0 1 2.88,1.52c-1.17,2.88 0.74,5 1.37,7.48c-2.15,3.84 -7.12,4.8 -8.85,8.81c-1.74,3.08 0.19,6.36 1.93,8.64c0.95,2.49 3.62,5.55 1.34,7.87c-5.32,4.13 -13.32,2.44 -19.32,5.67c-3.63,1.54 -4.8,5.36 -7.68,7.86c-1.52,-0.35 -4.21,1.17 -4.39,-1.52a9.65,9.65 0 0 1 -6.33,-4.8l-5.56,1.37c2.67,1.69 0.39,5 0,7.25c-1.54,2.88 -4.21,6 -7.68,5.38l2.13,7.48c2.49,-1.15 5,0 6.9,1.72c2.28,1.73 2.49,3.86 2.28,6.7l4,5.77c1.76,-0.58 2.32,-3.27 4.6,-2.3c1.91,-0.78 4.62,-1 6.71,-2.1c1.93,-0.78 3.64,0.74 5.16,1.52c2.13,-1 3.67,-4.21 6,-3.47c5,2.49 -1.35,5.38 0,8.83c1.93,0.37 3.45,-1 4.6,-2.11c2.88,-2.12 3.27,-6.9 7.66,-5.94c2.49,1.91 -0.57,4.23 -0.57,6.51c-1,2.51 -1.73,5.94 0.2,8.24c1.91,-0.95 3.06,-3.27 3.82,-5.16c1.54,-5.17 4.79,-9.79 7.09,-14.76a1.4,1.4 0 0 1 1.91,0.37c0.59,1.35 -1,1.76 -1.32,2.5c-2.69,4.21 -2.89,8.42 -2.11,13.41l1.33,0c4.25,-2.69 4,-7.84 5.94,-11.89a7.42,7.42 0 0 1 2.5,-4.21c2.69,0.78 0,2.88 0,4.42c-0.57,3.06 -0.39,6.14 1.91,8.4c2.9,-2.08 2.49,-6.49 2.3,-9.59c-1.33,-6.49 1.91,-12.8 6.9,-17.23a6.71,6.71 0 0 1 -2.67,-3a86.36,86.36 0 0 1 0,-24.56c1,-1.52 0.39,-4 1.73,-5.14c2.11,5 -0.58,11.46 2.3,16.45c0.57,0.58 0.76,-0.57 0.94,-0.78c3.64,-5.93 1.54,-12.24 3.06,-19c0.58,-1 0.39,-2.69 2.3,-2.49c1.93,1.71 1.36,4.4 1.36,6.51c2.85,-4.41 8,-6 11.87,-9c4.23,-0.58 7.47,-3.47 10.76,-5.73c3.65,-0.78 6.89,-2.34 8.6,-5.57c-0.35,-3.06 -0.72,-6.14 -1.29,-8.62zm-104.26,56.14l0,0a3.11,3.11 0 0 1 -1.54,2.88c-0.76,0.2 -1.34,-0.39 -1.73,-1.13c0.58,-0.97 1.91,-3.84 3.27,-1.75zm2.32,20.5a6.59,6.59 0 0 1 -2.88,1.17c-1.17,-2.3 2.08,-4.6 0,-7.09c-1.91,-2.48 -5,-2.48 -7.49,-3.47c0,-1.13 1.74,-1.33 2.87,-1.33c3.64,-0.39 6.92,2.11 8.26,5.54l0,0c-0.02,1.59 0.92,4.05 -0.78,5.18l0.02,0zm4.21,3.67c-1.17,0 -2.49,0 -3.08,-1.17c-0.37,-1.91 1.72,-0.57 2.67,-1.52c1.15,-1.15 3.08,-2.87 4.23,-1c-0.21,1.95 -2.51,3.1 -3.84,3.69l0.02,0zm7.84,-21.09c-1.72,1.54 -2.48,3.06 -4,4.6l-0.37,-0.2c1.13,-4.4 3.82,-9 8.42,-10.54c2.5,1.54 1.72,-1.72 3.84,-1.54c1.54,0 3.08,-0.35 4,0.76c-2.69,4.62 -8.83,2.75 -11.91,6.92l0.02,0zm17,-2.3l-1.34,0a5.5,5.5 0 0 1 0.6,-3.08c0.94,-0.55 3,-1.13 2.87,0.58a2.5,2.5 0 0 1 -2.1,2.5l-0.03,0zm5.58,-2.3a2.81,2.81 0 0 1 -2.5,0c-0.41,-0.2 0,-0.78 -0.19,-1.15c0.81,-1.93 4.26,-0.96 2.74,1.15l-0.05,0zm3.08,-1.91c-0.78,0 -2.13,0.37 -1.74,-1c0.37,-0.8 0.37,-1.93 1.52,-1.93a1.37,1.37 0 0 1 1.52,0.78a2.07,2.07 0 0 1 -1.27,2.15l-0.03,0zm5.36,-17.08a14.4,14.4 0 0 1 -3.67,9.59c-0.58,0 -1.13,0.59 -1.91,0.18c-0.19,-1.33 1.17,-2.28 1.52,-3.65c1.54,-2.45 -0.19,-6.31 2.13,-8c1,0 1.54,1.15 1.93,1.91l0,-0.03zm3.43,-7.83l0,0c0,4.6 -5.17,2.45 -7.84,4c-0.76,-0.58 -0.19,-1.73 0.35,-2.1c1.74,-1.17 4.43,-0.39 5.21,-3.06a1.4,1.4 0 0 1 2.28,1.15l0,0l0,0.01zm-3.06,-3.45c-1,0.56 -1,-0.76 -1.33,-1.15c-1.19,-2.71 1.72,-4.41 2.48,-6.55a1.91,1.91 0 0 1 1.91,1.17l0,0c1,3.04 -2.64,4.03 -3.03,6.53l-0.03,0zm2.3,-13.26c-1.52,-0.93 -3.63,1.74 -4,-0.74c0.59,-3.47 4.78,-1.36 6.32,-4c1.17,0 0.56,1.17 0.76,1.93c0.01,1.66 -1.9,1.88 -3.05,2.77l-0.03,0.04zm13.23,-7c-1,0.19 -1.17,-0.76 -1.73,-1.33a3.53,3.53 0 0 1 1,-2.14c1.33,-0.37 2.87,0.41 2.5,1.93l0,0c0,0.88 -0.98,1.08 -1.74,1.5l-0.03,0.04zm-10.36,26.92c-1.33,-0.35 0,-2.3 -1.13,-2.87c0.56,-1.15 1.91,-5.75 3.45,-2.1c13.82,-4.79 12.28,-3.43 10.94,-2.1l-13.26,7.07zm1.91,-21.25c-0.76,0 -1.91,-0.21 -1.7,-1.17c0,-0.76 -0.41,-2.1 0.74,-1.91c1,0 1.93,0.39 1.93,1.35l0,0c13.65,-6.31 12.89,-5.75 12.29,-5.34l-13.26,7.07zm3.08,-1c-0.2,-1 0.37,-1.17 1,-1.37c1.33,0.2 3.06,-0.17 3.84,0.78l0,0c0,1.15 -1.36,1.56 -2.14,2.13c12.08,-7.04 10.38,-6.87 10.56,-8.58l-13.26,7.04zm3.64,14.33a3.85,3.85 0 0 1 1.17,-4a1.42,1.42 0 0 1 1.31,1a4.53,4.53 0 0 1 10.78,-4.04l-13.26,7.04zm1.36,-10.68c-0.78,0.17 -0.78,-0.78 -1.34,-1.19c0,-1.7 2.49,-2.26 2.49,-0.18a1.51,1.51 0 0 1 15.74,8.71l-16.89,-7.34zm4,-1.93c-0.39,0.39 -1,1 -1.56,0.56c0,-0.76 -1.17,-1.34 -0.57,-2.08c17.69,5.58 19.99,7.34 19.06,8.86l-16.93,-7.34zm4,-2.5c-0.19,0.78 0.2,1.33 -0.56,1.72a1.92,1.92 0 0 1 -2.11,-1.15c-0.41,-0.76 0.37,-1.35 0.92,-1.7a1.31,1.31 0 0 1 1.75,1.13zm3.06,-0.19c-0.58,-0.2 -1.52,-0.37 -1.34,-1.33a1.39,1.39 0 0 1 1,-1.73c1,-0.22 1.35,0.56 1.74,1.34c16.89,8.12 16.3,9.06 15.54,9.06l-16.94,-7.34zm4.78,-1.91c-0.74,0.19 -0.94,-0.78 -1.13,-1.15c-0.59,-2.32 2.69,-2.13 2.49,-0.22a1.1,1.1 0 0 1 15.58,8.71l-16.94,-7.34zm4.81,-2.13c-0.78,0 -1.15,-0.74 -1.15,-1.52c0.57,-0.58 -0.58,-2.1 0.77,-1.93c0.58,0.2 1.53,0.2 1.53,1.17s16.75,9.25 15.79,9.58l-16.94,-7.3z" class="cls-4"/>
  <path id="svg_73" d="m173.110003,549.339999l0.08,0.07l0,-0.21s-0.04,0.08 -0.08,0.14z" class="cls-4"/>
  <polygon id="svg_74" points="356.34 710.36 356.34 710.36 356.34 710.36 356.34 710.36" class="cls-4"/>
  <path id="svg_75" d="m465.620003,575.029999c-1.91,-3.25 -4.79,-6.9 -9.39,-6.12c-11.31,2.87 -18,16.08 -29.14,19.36c-2.11,-0.39 -4.8,0 -6.14,-2.5c-0.76,-1.91 0.58,-3.45 1.93,-4.6c6.14,-4 6.33,-11.91 11.89,-16.29c3.25,-3.63 10.54,-6 9.37,-11.89c-3.06,3.47 -7.85,4 -11.11,7.29c-1.73,1.91 -3.25,4.6 -5.75,5.18a2,2 0 0 1 -2.49,-1.34a31.88,31.88 0 0 1 0.19,-13.43c0.57,-7.66 7.47,-12.67 9.2,-19.75l-0.21,-0.19c-3.24,4 -8.23,5.75 -11.09,10.17c-1.74,3.26 -1.35,6.14 -1.93,9.77c0.19,1.17 -0.94,1.34 -1.7,1.17c-2.32,-1.37 -3.29,-3.84 -4.23,-6.14c0.18,-6.34 -1,-14.78 0.94,-21.11c1.73,-7.47 5.77,-14.16 7.5,-21.64c-1,0.78 -2.51,1.72 -3.08,2.89c-0.56,4.59 -4.6,7.83 -6.9,11.85c-2.49,3.08 -0.58,7.48 -3.64,10.37c-0.76,0.58 -1.54,-0.2 -2.3,-0.39c-6.73,-4.21 -6.9,-12.85 -6,-19.73c-0.78,-6 2.5,-11.13 4.8,-16.3c0.76,-2.1 1.34,-4.6 0.58,-6.12a8,8 0 0 0 -4.42,4.6c-3.26,4.39 -2.67,10.34 -6,14.74c-0.94,0.76 -1.91,0.39 -2.86,0c-2.87,-5.75 -5.17,-11.87 -5.37,-18.79c0.38,-2.3 -0.58,-4.8 0,-6.9c-1.4,-12.26 2.6,-20.7 7.6,-30.49c-3.47,-0.17 -4.41,5.56 -7.68,4.64c-1.72,-1.56 -0.78,-4.25 -1,-6.55c2.1,-8.42 0.39,-17.27 -2.48,-24.71c-1.36,-2.89 -2.69,-6.49 -5.94,-7.49c0.93,4 3.06,7.12 3.46,11.5c1.53,5.38 -0.6,10.76 -1,15.73c-1.73,4.6 -4.79,-2.12 -7.68,-1.54a67.82,67.82 0 0 1 2.5,10c3.07,11.33 -2.68,21.29 -0.39,33.36c0.78,13.44 3.64,28 10.17,40.46c10.55,16.3 20.7,33.35 22.22,53.29c-0.37,4.58 -3.82,8.23 -8,10.33c-3.82,1.76 -8.6,2.87 -13,1.54c-7.46,-19.35 -18.38,-38.73 -34.68,-52.53c-4.62,-5.16 -12.08,-6.51 -15,-12.63a26.66,26.66 0 0 1 -7.66,2.48c-1.54,-0.76 -3.45,-0.94 -5,-1.52c-2.49,-1.74 1,-3.84 1.35,-6c2.1,-3.86 -1.15,-7.29 -2.69,-10.35a10.41,10.41 0 0 0 -1.74,2.1c-1.73,7.1 -8.79,11.72 -10.33,19.17c-2.51,3.08 -5.57,5.38 -9.39,5.38c-3.47,0 -6.36,-1 -8.46,-3.84c-0.94,-1.35 -0.94,-3.45 -2.48,-4.21a16.36,16.36 0 0 1 -8.85,5.94c-3.21,1.72 -5.9,-0.78 -8.79,-1.36c-1.34,-0.76 -2.32,-2.5 -3.62,-3.24a35.86,35.86 0 0 1 -13.65,9.36c-11.11,1.56 -21.07,6 -32.2,7.7c-5.73,0 -11.3,0.37 -16.47,2.47c-5.38,0.59 -10.54,-1.71 -14.75,-4.58a3.88,3.88 0 0 1 -1.87,-2.79l-1.24,0.25a1.7,1.7 0 0 1 -0.34,1a2.3,2.3 0 0 1 -2.69,-0.19a1,1 0 0 1 0,-0.19l-1.39,0.28a8.35,8.35 0 0 1 -0.31,4.31a13.08,13.08 0 0 1 -5.77,5c-2.82,0.22 -3.8,-0.17 -5.84,-1.84l-0.86,6.46c3.08,1.17 4,5 4.4,7.86l4.8,6.14c-0.18,-1.54 1.15,-2.3 2.49,-3.06c5.58,-1.93 12.65,-1.74 17.25,2.45c1,1.56 1.15,3.3 1.74,4.82c1.73,-0.78 3.45,0.58 5.38,0.76a20.92,20.92 0 0 1 -3.65,8.44l0.18,0.19c1.54,-1 1.71,2.3 3.25,0.76c4.8,-2.67 6.53,-8.44 9,-13a1.49,1.49 0 0 1 1.91,0.2c0.56,3.08 4.77,0.19 6.31,2.3c0.78,2.88 -1.71,6.14 0,8.81c5,-0.57 6.14,-6.3 10.76,-7.84c1.13,0 0.76,1.54 0.76,2.11c-1.75,2.3 -1.15,5.92 -0.56,8.44c1.91,-1.93 2.28,-4.43 3.43,-6.73c1.73,-5.55 8,-6.9 12.47,-9.39c5.17,2 -0.21,5.75 0.16,8.83c0,0.56 -0.16,1.52 0.78,1.34a13.92,13.92 0 0 0 3.08,-5c1.91,-3.23 1.91,-9 6.9,-9.2c4,2.11 0.37,6.32 1.71,9.59a4.91,4.91 0 0 0 1.91,2.3c3.65,-4.4 4.62,-10 8.83,-14c1.35,-1.72 3.28,-0.59 4.58,0.56c2.91,3.65 0,8.25 -1.71,11.31c-0.37,1.73 -1.72,3.45 -1.13,5.38a7.26,7.26 0 0 0 3.84,-4.62c2.1,-4.56 2.3,-10.14 6.49,-14c3.45,-1.52 4.23,3.06 6.33,4.25c4.23,-3.27 6.14,-8.26 10,-11.71c1.74,-1.15 4,-1.72 6,-0.18c4.4,10.35 15.53,11.7 23.58,17.23c9,8.64 12.64,20.14 14.58,31.83c0.94,0.57 0.76,-0.76 1.7,-0.39c0.8,-0.76 2.32,-1.15 2.51,-2.47c1.93,-1.15 0.76,-5.38 4.2,-4.8c1.77,0.74 1.36,2.87 2.14,4.21c-0.37,4.21 0.94,9.2 -1.56,13.22c-1.13,4.6 -6.49,3.64 -8.79,7.31c5,5.16 5,13.78 2.1,20.13c-2.9,5.34 -10.17,5.34 -12.3,11.07a83.5,83.5 0 0 0 10.69,-2.54c3.65,-0.57 2.5,-4.62 4.41,-6.34c3.24,0.41 0.37,3.47 1,5.38c0.74,-0.37 1.51,-1.17 2.27,-0.58c1.77,7.87 6.92,14.19 7.13,22.63c0.37,2.47 -1.54,3.45 -3.47,4.4c0,2.32 -1.52,3.84 -3.08,5.36s-4.39,0.59 -6.12,0.78l-7.66,5c-0.2,1.91 1.71,3.24 2.67,4.6c1.15,2.3 -1,3.43 -1.13,5.54l1.52,2.88c3.06,-0.56 6.7,-0.19 8.81,1.52c3.47,2.11 2.3,7.29 1.91,9.79l-0.76,0.58l3.26,1.72c1.16,-2.5 4.42,-1.91 6.7,-2.5c2.32,-0.93 2.32,-3.45 3.47,-5.16c0.57,-4.43 1.91,-8.83 2.69,-13.24c0.39,-1.91 1,-4.4 3,-5.14a3.76,3.76 0 0 1 1.74,3.43c0.78,1.34 0.19,3.23 0.58,4.79a13.23,13.23 0 0 1 7.27,1.33c2.89,1.36 3.84,4.6 4,7.48c2.12,-2.67 1.75,-7.09 4,-10c0.39,-0.74 1.54,-0.56 2.13,-0.15c2.1,2.86 4,7 7.46,8.24c1.35,-4 -2.49,-6.72 -4.62,-9.8c0,-2.87 -3.43,-5.54 -0.74,-8.42c3.43,0 5.56,3.82 6.71,6.7c1,1.52 2.3,4.21 4.79,4.06l0.39,-2c0.57,-1.91 2.28,-0.2 3.82,-1a12.53,12.53 0 0 0 -0.19,-5.36c-0.18,-4.4 -5.17,-5 -6.12,-8.81c0.76,-1.17 1.71,-2.73 3.23,-2.9c4.43,0.78 8.46,-0.57 12.28,1.73c0.59,-0.76 -0.56,-1.91 -1,-2.69c-3.65,-0.76 -6.71,-3.82 -10.53,-3.23c-0.8,-0.59 -2.51,0 -2.32,-1.54c0,-2.32 2.5,-1.93 3.84,-2.5c4.21,-2.1 9.2,1.91 12.46,-1.52c-1,-1.17 -3.26,-0.58 -2.89,-2.51c2.5,-1.33 6.16,-3.08 6.16,-6.32c-1.93,1.52 -4.79,0.57 -7.29,0.94c-4.81,-0.37 -7.09,5.77 -11.89,6a1.56,1.56 0 0 1 -1.91,-1c2.11,-3.08 6.12,-2.13 8.23,-5.38c1,-1.72 2.12,-3.84 2.12,-5.75c-2.69,0.19 -4.81,-0.59 -7.09,-0.94c-0.59,-0.41 -1.93,-0.21 -1.74,-1.34c2.11,-2.71 5,-2.71 6.92,-5.6c1.7,-0.15 3.26,-0.54 5,-0.74c4,-1.34 7.68,0.59 11.31,1.54c2.69,-1.15 7.29,-1.93 7.29,-5.75c-1.72,0.74 -2.69,-0.78 -4.21,-0.78l-0.59,-2.86c-1.73,0 -3.08,1.34 -4.6,1.89c-6.9,3.08 -11.5,-3.84 -17.64,-0.94c-2.67,3.26 -5.73,6.69 -9.78,8.44c-4,0.76 -8,3.8 -11.68,0.37a10.36,10.36 0 0 1 -2.11,-4.79c1.16,-5 2.11,-10 3.46,-14.78c1.15,-7.64 -3.08,-13.19 -3.26,-20.31c0.74,-2.08 3.06,-3 5.17,-3.43c1.73,-0.19 3.25,0.59 5.18,0.59c2.67,0.35 3.63,3.23 4.78,5.36c0.76,1.34 1.17,3.06 2.69,3.84c0.76,-3.65 2.1,-7.12 2.49,-11.11c3.06,-5.4 5.17,3.23 8,3.62c1.15,-3.47 1.74,-8.44 6.34,-8.83c6.9,-0.19 12.43,-4.6 17.62,-8.44c6.33,-3.62 11.13,-12.24 18.4,-13a7,7 0 0 1 4.42,2.87c1.15,2.69 -1.34,4.23 -2.69,6.14a5.6,5.6 0 0 0 -0.39,2.88a3.87,3.87 0 0 0 1.91,-0.78c1.88,-2.16 4.18,-4.28 3.22,-7.93zm-81.26,-116c-0.58,7.29 0.94,13.8 -1.74,20.33a1.64,1.64 0 0 1 -1.16,1.12c-0.55,-1.12 0,-2.85 0.39,-4.2c0.19,-5.75 0.19,-11.67 -1.15,-17.07a4.69,4.69 0 0 1 0.76,-3.06c2.1,-0.55 2.1,1.91 2.9,2.88zm11.87,68.62c-2.3,-0.76 -3.08,-3.63 -4.78,-5.56a84.09,84.09 0 0 1 -5.58,-12.02l1,-1.35c4.21,3.26 4.77,8.42 7.25,12.46l0.58,-0.2c0.2,-3.27 -0.37,-7.07 2.13,-9.2c0.75,5.56 0.94,10.94 -0.6,15.91l0,-0.04zm-220.82,28c-1,0.19 -1.17,-0.39 -1.17,-1c-0.18,-1.52 2.32,-1.32 2.49,-0.15c0,0.79 -0.74,1.57 -1.32,1.18l0,-0.03zm3.06,6.7a2.3,2.3 0 0 1 -1.35,-1.91a1.24,1.24 0 0 1 0.59,-1.36c1.32,-0.18 2.69,-0.18 3.06,1.17l0,0c-0.57,0.81 -0.76,2.72 -2.3,2.13l0,-0.03zm16.49,-1.52c-3.08,1.52 -5.56,-1.75 -8.64,-1.52a1.61,1.61 0 0 1 0.39,-2.3c3.06,-2.34 5.56,1.13 8.81,0.94a2.38,2.38 0 0 1 -0.56,2.91l0,-0.03zm13.43,-0.78a1.93,1.93 0 0 1 -1,1.72a2.18,2.18 0 0 1 -0.78,-2.87c0.8,-1.86 2.93,0.03 1.78,1.18l0,-0.03zm2.86,1.72c-1.34,-0.2 -0.78,-1.91 -1,-2.87c1,-1.73 1.91,0.18 2.1,1.15c-0.34,0.6 0.05,1.75 -1.1,1.75l0,-0.03zm5.36,0a2.14,2.14 0 0 1 -1.91,-2.69c0,-1.7 2.11,-1.52 2.5,-0.37c-0.2,0.98 0.56,2.74 -0.59,3.09l0,-0.03zm5.19,-0.2c-1.15,0.2 -1.91,-1 -2.13,-1.91c-0.17,-0.76 0.59,-1.32 1,-1.71c0.95,-0.2 1.52,0.76 1.91,1.36c-0.02,0.97 0.37,1.75 -0.78,2.29l0,-0.03zm30.48,-14.36c-1.17,1.34 -3.45,0 -5,1c-4.4,2.69 -10.56,5.19 -15.53,2.69c3.43,-1.54 7.66,-1.91 11.13,-3.82c2.86,-0.58 6.12,-4.6 9.18,-1.34c0.59,0.35 0.22,0.93 0.22,1.5l0,-0.03zm36.59,2.86c-3.67,-2.28 -8.87,-0.93 -12.3,0.59c-5.17,2.3 -5.36,10 -11.11,11.11c-0.2,-3.06 2.1,-5.73 4,-8.42c3.82,-1.72 4.6,-5.56 4.78,-9l1.54,-1.34c1.15,0.76 1.15,2.49 1.34,3.84c3.43,-0.2 1.52,-5.19 4.58,-6.14a6.41,6.41 0 0 1 1.93,5c3.45,-0.41 1.35,-4.8 4.41,-6l0.8,0.78c-0.15,3.12 4.03,7.31 0.03,9.61l0,-0.03zm-9.73,3.84c1.34,-4.19 6.1,-4 8.81,-7.1l3.82,-3.62c0.78,0.58 0.39,2.1 -0.18,3.08l0,0a21.06,21.06 0 0 1 -11.69,8.24a4.79,4.79 0 0 0 35.83,2.29l-36.59,-2.89zm-20.94,-4.58c1.33,-4.23 5.75,-5.36 8.64,-7.85c0.37,-0.2 0.76,0.39 0.76,0.58l0,0c-0.57,4.41 -5.36,5 -8.07,7.45c63.1,9.6 62.34,10.18 62.12,9.42l-63.45,-9.6zm4.23,2.13c1.13,-1.37 1.52,-3.28 3.45,-3.86c0.2,-1.13 1.33,-1.33 2.3,-1.72c0.37,0 0.94,-0.19 1.13,0.39l0,0a10.53,10.53 0 0 1 -5.16,5.73c62.72,9.6 62.12,9.6 61.72,9.06l-63.44,-9.6zm5.36,2.88a1.34,1.34 0 0 1 -1.13,-0.58c1.52,-1.56 3.43,-5.77 6.12,-3.84l0,0a7.62,7.62 0 0 1 58.46,14.02l-63.45,-9.6zm2.69,1.91c1,-1.91 2.48,-2.88 4,-4.4a1.29,1.29 0 0 1 1.54,0.74c-0.22,1.75 -1.76,3.08 -3.28,3.84a4.93,4.93 0 0 1 61.19,9.37l-63.45,-9.55zm3.07,4.6c-0.77,-0.78 0.38,-1.54 0.58,-2.49c1.34,-0.78 3.45,-4 4.58,-1.15c0,1.89 -1.72,2.28 -2.87,3.43c62.69,9.6 61.91,10.4 61.16,9.81l-63.45,-9.6zm2.86,2.48c1.36,-1 4.21,-5.56 5,-1.89l0,0a5.28,5.28 0 0 1 -3.84,3l-1.16,-1.11zm3.84,3.64c-0.76,-0.58 0.21,-1.15 0.37,-1.73c0.8,-0.57 3.64,-1.54 2.9,0.58l0,0c62.66,10.56 61.35,11.88 60.18,10.75l-63.45,-9.6zm2.1,2.3c0,-0.58 0.8,-1.34 1.35,-1.52c0.76,0 1.73,0 2.12,0.57l0,0c0,1 -1.15,1.69 -1.93,1.91a1.13,1.13 0 0 1 61.91,8.64l-63.45,-9.6zm1.72,4c0,-1 1,-1.13 1.75,-1.52c0.77,0.19 1.35,-0.39 1.91,0c0.57,1.32 -0.56,2.1 -1.54,2.49a1.83,1.83 0 0 1 61.33,8.65l-63.45,-9.62zm3.47,8.07a6,6 0 0 1 -1.17,-4.8c0.41,-1.17 2.9,-1 2.9,0.37a5.09,5.09 0 0 1 61.72,14.05l-63.45,-9.62zm15.14,80.3c1,-0.19 1.74,1.13 2.29,1.91c0.39,1.54 -1.31,1 -2.29,1.15c-0.77,0 -1.16,-0.76 -1.34,-1.34c63.63,8.86 63.63,7.9 64.79,7.9l-63.45,-9.62zm-0.37,-11.11c0.18,-0.78 0.37,-1.56 1.14,-1.75s1,0.58 1.52,1l0,0c0,1 0,1.91 -1.13,2.11c62.86,9.39 61.92,9.04 61.92,8.26l-63.45,-9.62zm2.11,7.27c-1,-0.21 -1.93,-1 -1.74,-1.91c0.4,-1.93 2.5,-1.17 2.68,0.57l0,0c63.64,10.4 62.88,10.59 62.51,10.96l-63.45,-9.62zm-1.74,-15.71a1.36,1.36 0 0 1 2.68,0.18c0,1.17 0,2.49 -1.33,2.3c62.5,9.23 60.94,8.49 62.1,7.14l-63.45,-9.62zm-0.56,-48.12l0,1.36a3.78,3.78 0 0 1 -3.45,-1a1,1 0 0 1 0.56,-1.72a2.6,2.6 0 0 1 66.34,10.98l-63.45,-9.62zm-1,-5.15a1.56,1.56 0 0 1 -0.94,1.52a3.26,3.26 0 0 1 60.59,8.46c-0.19,-0.56 0.18,-0.93 0.77,-1.32c1.14,0.18 2.49,-0.21 3.06,0.96l-63.48,-9.62zm-4.78,-6c1.33,-0.2 2.3,0.56 3.24,1.15a0.92,0.92 0 0 1 -0.75,1.54c-1,0.58 -1.93,-0.18 -2.9,-0.39c62.54,8.92 63.29,7.75 63.89,7.36l-63.48,-9.66zm-1.15,36.6c0,0.78 -1,1.17 -1.56,1.17c-1.13,0.37 -2.11,-0.39 -2.85,-0.78c-0.4,-0.56 -1.17,-1.32 -0.6,-2.3c1.93,-1.54 4.23,0 5,1.91l0.01,0zm3.64,-14.77l0,0c-1.73,1.36 0.18,3.29 -1.73,4.64c-2.69,0.56 -0.57,3.45 -2.87,4.4c-1.18,-0.78 -3.45,0 -3.64,-1.91c-0.41,-2.1 2.67,-2.1 2.1,-4.25c0.76,-1.69 3.84,-1.13 3,-3.62c1,-1 2.9,-0.78 3.09,0.74l0,0l0.05,0zm0.75,-4.19c-0.75,0.17 -0.94,-0.78 -1.31,-1.35c0.37,-1 0.37,-2.1 1.52,-2.49a2.1,2.1 0 0 1 2.09,1.32l0,0c63.69,11.03 62.15,11.61 61.18,12.18l-63.48,-9.66zm-0.94,68.61c1.54,-1.54 4,-0.57 6.12,-1l0.39,0.59c0.18,1.13 -1.52,1.73 -2.1,2.49a4.87,4.87 0 0 1 -4,-0.19c62.7,9.31 63.07,8.33 63.07,7.77l-63.48,-9.66zm2.85,25.3l0,0c0,0.76 -0.77,1.34 -1.31,1.73a1.7,1.7 0 0 1 -1.74,-1.15c-0.38,-1 0.57,-1.54 1.14,-1.91c64.45,9.47 65.78,9.84 65.39,10.99l-63.48,-9.66zm1.34,-2.85c-1.13,-0.21 -3,-1 -2.11,-2.71c1.16,-1.91 3.28,0.57 3.09,1.93c63.86,10.23 63.06,10.62 62.5,10.44l-63.48,-9.66zm1.73,-4.23c-0.75,0 -1.91,0 -1.91,-1a2.4,2.4 0 0 1 1,-1.91a2.51,2.51 0 0 1 1.89,1.73l0,0c63.67,10.26 62.88,10.69 62.5,10.84l-63.48,-9.66zm1.17,-3.86a1.06,1.06 0 0 1 -1,-1.13c0.39,-1 0.57,-2.1 1.71,-2.3c1,-0.19 1,1 1.37,1.52c62.93,10.44 62.93,11.96 61.4,11.57l-63.48,-9.66zm18.19,-99.46c0.2,1 0,1.73 -0.94,1.93c-1.16,0.37 -1.36,-1 -1.73,-1.52c63.11,7.71 65.96,7.53 66.15,9.25l-63.48,-9.66zm-4.6,17.44c1,0 2.13,-0.19 2.69,0.78l0,0c0.39,1.52 -1.34,1.33 -2.12,1.72c-0.75,0.19 -1.12,-0.39 -1.52,-0.78c63.5,8.92 63.67,8.14 64.43,7.94l-63.48,-9.66zm-1.34,-2.69a2.45,2.45 0 0 1 2.9,-0.56c0.37,0.37 0.94,0.56 1.13,1l0,0c-0.76,1.35 -2.3,1.91 -3.45,0.78c63.09,9.22 62.72,8.86 62.9,8.44l-63.48,-9.66zm1.55,-2.28c-0.76,-0.19 -1.36,0.37 -1.73,-0.41c-0.58,-1.91 1.91,-1.91 3.08,-1.32c63.85,10.44 62.68,11.2 62.13,11.39l-63.48,-9.66zm-1.14,-5.2c0.6,0 1.52,0 1.52,0.78l0,0c0,0.78 -0.57,0.78 -1.12,1.34c-0.6,0 -1.34,0.2 -1.34,-0.56c63.05,8.68 63.83,8.29 64.42,8.1l-63.48,-9.66zm4.98,19.8l0.19,0.56a5.82,5.82 0 0 1 -4.23,3.08c-0.74,0 -1.93,0.2 -1.93,-0.78c63.1,2.16 65.97,1.97 68.29,1.6l-62.32,-4.46zm-7.1,8.59c1.91,-1.13 4.21,-0.74 6.14,-1.91c0.57,-0.19 1,0.39 0.57,1l0,0c-0.94,2.3 -3.26,2.84 -5.58,3.06c61.56,4.02 60.22,3.48 61.19,2.31l-62.32,-4.46zm6.14,4.06l0,0c-0.37,2.86 -3.82,3 -5.94,4.21a1.11,1.11 0 0 1 -1.35,-0.8c63.28,1.05 67.13,1.59 69.61,1.05l-62.32,-4.46zm-8.24,8.22a50.51,50.51 0 0 1 7.29,-2.1l0,0.78c-2.32,1.69 -4.43,4.4 -7.29,3.25a1.27,1.27 0 0 1 62.32,2.53l-62.32,-4.46zm0.38,8.07a1.89,1.89 0 0 1 -0.38,-1.75c1.91,-2.11 5.16,-1.54 7.29,-3.24l0.19,0.37c60.8,6.74 58.29,9.44 55.22,9.08l-62.32,-4.46zm20.51,10.92c-2.3,-0.59 -5.36,0 -5.93,-3.08l0.18,-0.57c5.56,0.76 9.78,-2.67 13.41,-6.53l0.59,0.2l0,0c-0.37,2.88 -3.65,5.18 -5,7.87c2.3,0.76 4,-1.36 6.51,-0.78c-0.76,2.69 -3.45,4.21 -6.12,4.6c1.52,1.15 4.4,-0.19 5.36,1.33c-1,2.88 -3.65,2.12 -5.75,2.71c-1,0 -1.35,-0.59 -2.11,0c-0.19,1 1,1 1.35,1.34c0.58,0 1.32,-0.19 1.71,0.18c-0.78,2.88 -4.77,0.56 -5,4c-0.94,1.13 -1.91,-0.19 -2.86,-0.39c-1.91,0.59 -4.43,0.94 -5.75,2.87c1.13,0.78 2.49,2.49 3.84,3.64c-0.2,1 0.38,2.5 -0.38,3.08c-2.14,-2.49 -6,-2 -7.09,-5.18a4.91,4.91 0 0 1 1.33,-4.41c66.37,1.22 74.77,0.48 74.03,-6.42l-62.32,-4.46zm-5.36,-60.56a1.91,1.91 0 0 1 -2.12,-1.74a1.34,1.34 0 0 1 0.76,-1.54c0.79,0.2 1.93,0.2 1.93,1.17c62.32,5.2 62.49,6.16 61.75,6.57l-62.32,-4.46zm10.72,57.48l0,0c-0.39,0.78 -0.39,2.34 -1.72,2.12c-0.77,0 -1,-1 -1.16,-1.73c0,-0.59 0.58,-1.13 1.16,-1.54a1.7,1.7 0 0 1 1.72,1.15l0,0zm7.08,-54a1,1 0 0 1 1.93,0c1.34,1.13 1.15,2.69 2.1,4c2.11,-3.25 0.39,-8.81 3.65,-11.69l0.76,0.19c-1,7.1 -1.35,13.8 -3.45,20.51l56.38,0c-1.72,-60.16 -4,-64.37 -4.41,-69.16l-56.96,56.15zm-1.52,52.13c-0.39,0.76 -1,1.91 -1.91,1.71a1.61,1.61 0 0 1 -1.35,-1.32c-0.19,-0.74 0.78,-1.35 1.13,-2.11c58.13,-56.16 59.28,-55.61 59.09,-54.43l-56.96,56.15zm5.52,-54.43c0,1.13 -1.17,1 -1.93,1.13c-0.76,0 -1.34,-0.35 -1.34,-1.13c-0.18,-1.13 1,-1.33 1.56,-1.72c56.23,-4 57.75,-3.64 57.18,-2.31l-55.47,4.03zm0.37,-4.41c1,-1.52 3.08,0.78 2.11,2.13a2.09,2.09 0 0 1 -1.52,0.37c54.32,-4.62 55.08,-5.75 54.88,-6.53l-55.47,4.03zm2.89,11.7l0,0a1.54,1.54 0 0 1 -0.78,1.15a2.52,2.52 0 0 1 -1.52,-0.94c0,-0.41 -0.39,-1.36 0.37,-1.36c1,-0.39 1.54,0.41 1.93,1.15l0,0zm0.76,-12.63c-1,0.17 -1.15,-0.78 -1.35,-1.37c-0.19,-0.74 0.59,-1.34 1,-1.71c0.76,-0.2 1.15,0.76 1.54,1.15c55.62,-3.27 55.43,-2.1 54.28,-2.1l-55.47,4.03zm1.34,10.89c-0.19,-0.56 -0.58,-1.89 0.39,-2.49c1,0.21 1.15,1.36 1.91,1.73c55.86,-2.51 53.93,-2.88 53.17,-3.27l-55.47,4.03zm4,-15.69c-0.57,-2.69 -1.72,-5.77 -0.94,-8.44c0,-1.34 -0.39,-2.88 0.37,-3.84c1.15,0.2 1.72,1.74 2.5,2.3l0,0c55.49,-0.6 56.08,3.85 53.56,5.95l-55.49,4.03z" class="cls-4"/>
  <path d="m339.120003,389.109999c0.74,0.57 1.91,1.52 2.84,0.57l2.71,0.76c-0.76,2.89 -3.64,5.36 -1.73,8.44c1.52,1.76 2.67,5.15 5.57,3.84c1.91,-1 3.42,-2.51 5.35,-2.71c0,-0.17 0.58,-0.54 0.21,-0.74a10.36,10.36 0 0 1 -0.41,-1.36c1.54,-0.35 0,-2.85 2.11,-2.65c1,1.3 0.58,3.23 2.31,4.21l4.6,-0.2c-0.19,1.37 -1.53,2.11 -2.49,3.08c-0.58,0.2 -1.35,-0.21 -1.35,0.55l0.2,0c-2.87,2.3 -7.11,5.38 -9.4,8.24c-3.25,0.78 -7.09,-1.15 -10.52,-1.54c-6.73,-1.5 -12.85,-1.71 -19.38,-2.3c-1.91,0 -4.6,0.39 -5.57,-0.93c0,-0.59 -0.94,-1.72 -0.57,-2.69c-1.34,-1.93 -0.56,-2.5 -1.15,-5.19c1,-1.15 -1.73,-1.52 -1.52,-2.49c-1,-0.39 -0.78,-1.91 -1.36,-2.46c2.88,1.09 5.38,-2.91 6.92,-2.49c0,2.49 0.19,4.75 2.67,6.29c0.58,-0.17 1.36,0.76 1.17,1.15c1.73,1 3.62,2.32 5.55,1a6.79,6.79 0 0 0 5,-6.51c-0.74,-1.17 -0.19,-3.65 -1.13,-4.25c2.28,-1.54 4.41,1.55 6.32,-1.11a2.22,2.22 0 0 1 1.93,-1.54c0.37,0.74 0.74,2.09 1.15,3l-0.03,0.03z" class="cls-3" id="path2177"/>
  <path d="m259.570003,436.479999a7.8,7.8 0 0 0 0,-3.47c-0.58,-0.39 -0.76,-0.78 -0.39,-1.15c-0.37,-0.58 0.39,-0.78 0.39,-1.56c2.09,-1.32 4.21,-3.82 4,-5.73c1,-0.19 1.56,1.35 2.32,1.91c0.56,1.52 -0.39,2.69 0.37,4.43c1.34,1 2.86,1.32 3.08,2.84l-2.85,4l-6.92,-1.27z" class="cls-3" id="path2185"/>
  <path d="m246.120003,433.969999c0.37,-0.78 -0.74,-1.74 -1.71,-1.74c-1.52,-0.19 -2.11,1.15 -3,2.13l0.74,0.37c-0.57,0.93 -2.11,-0.18 -3.26,0.56l0,-0.19c-1.54,0.39 -1.15,0 -2.47,-0.74l0.56,-0.61c0.18,0.22 1,0 0.76,-0.17c0.2,-0.39 0.39,-0.57 0,-1c0.39,-1.34 4.41,-2.71 3.67,-4.81c0.17,-0.16 0.74,-0.16 0.74,-0.74c-0.94,-0.78 -0.57,-1.74 -0.74,-2.5c0.93,-0.19 1.32,0.59 1.89,1.52c0.76,3.43 5,-0.76 5.75,2.3c-0.18,2.89 -1.87,2.69 -1.83,6l-1.06,-0.43l-0.04,0.05z" class="cls-3" id="path2189"/>
  <path d="m185.110003,541.969999a4.74,4.74 0 0 0 -1.48,-2.39c-1.91,-1.56 -7.64,0.56 -7.27,-2.3c1,0.19 0.59,-0.78 1,-1.13c1.15,-2.15 5.55,-1.74 5.36,-5.21l0,-1.73c0.95,0.19 2.32,0 3.08,0.78c0.56,1.15 0.95,2.88 2.67,3.27c1.73,0 3.06,-1.54 3.84,0.74c0.54,2.46 -1.7,4.62 -1.48,6.82l-5.68,1.15l-0.04,0z" class="cls-3" id="path2191"/>
  <path d="m172.330003,555.869999c-1.91,1.91 -2.11,5.38 -5.56,5a4.37,4.37 0 0 1 -2.28,-3.27c0.35,-1 -0.41,-1 0.35,-1.91a6.14,6.14 0 0 0 -5.16,-4.6l-0.18,-0.39c0.37,-1.13 2.48,-1.72 3.26,-1.91c1.73,-0.59 2.67,1.54 4.6,0.78c1.52,-1.54 2.1,-3.08 4.6,-3.28c0.17,1.09 1.89,2 1.26,2.92l-0.89,6.67l0,-0.01z" class="cls-3" id="path2193"/>
  <path d="m343.330003,685.449999a3.21,3.21 0 0 0 -2.89,-0.76c-0.93,1.15 -0.76,2.46 -2.1,2.67c-1,-0.39 -1.13,0.39 -1.93,-0.21c-0.55,-0.74 0.19,-1.89 0.19,-2.46c0.2,-0.21 0.4,-2.9 1.74,-3.45c0.78,-1 0.19,-2.3 -0.59,-3.08c-1.52,-1 -3.62,-1.71 -4.21,-1.52l0.59,-0.19l-0.2,-0.22a2.84,2.84 0 0 1 3.28,-0.37c0.91,0.37 2.3,1.15 3.23,0.2c1.52,-1.35 1,-4.6 4.23,-4.25c1.33,0.82 -0.4,2.9 0.2,4.25c0.37,2.88 3.64,3.62 6.12,4.4l-7.66,5l0,-0.01z" class="cls-3" id="path2195"/>
  <path d="m346.390003,698.469999c-1.15,1 -2.12,1.52 -2.12,3.28c1.16,2.28 0.19,4.38 -0.36,6.51c-1.36,0.39 -3.27,-0.59 -5,-1.13c-1.54,0.74 -3.66,1.3 -5.55,2.08c-0.8,-0.56 0,-2.08 0.76,-2.86c1.52,-1.33 4,-1.74 3.25,-4.25a4.62,4.62 0 0 1 -1.91,-2.11c3.06,-1.32 6.69,-1.71 9.4,-4.4l1.52,2.88l0.01,0z" class="cls-3" id="path2197"/>
  <path d="m359.610003,712.079999c-0.57,2.51 3.07,3.25 2.51,6.16c-3.08,0.93 -6,0.93 -7.86,3.43c-0.6,0.19 -1.34,-0.39 -1.73,-0.39c-1.15,-2.11 3.06,-4.41 0,-5.58c-0.78,0.24 -1.74,-0.74 -1.91,-0.93c1.31,-2.5 4.38,-1.74 5.73,-4.41l3.26,1.72z" class="cls-3" id="path2201"/>
  <path d="m181.530003,569.869999c-0.57,1.52 1.15,2.69 0,4c-2.5,1.15 -3.24,1 -5.73,0.2c-1.74,0.39 -3.08,2.12 -4.06,2.69l0.22,0.37c0.37,1.34 -0.76,1.34 -1.54,2.12c-0.78,-0.39 0.19,-1.34 -0.59,-2.12c0.78,-0.37 -0.19,-0.37 0,-0.76c1.15,-1 0,-1.54 0.78,-2.69l0.2,0c0,-2.5 -2.32,-4.21 0.58,-5.73c2.67,0.17 4.6,-2.11 5.34,-4.23l4.8,6.14l0,0.01z" class="cls-3" id="path2203"/>
  <path d="m286.000003,427.999999c-0.56,4.23 0.59,8.27 3.82,10.74c6.34,1.54 11.72,5.38 17.86,7.51c4.58,-0.2 9.2,0 12.45,2.84c-5.36,3.06 -10.74,-1.52 -16.47,-1.71c-7.11,-1.52 -17.85,-2.3 -19.18,-11.72c-1.15,-4 0.18,-7.46 0.37,-11.09c1.15,0.76 0,2.5 1.15,3.43z" class="cls-3" id="path2207"/>
  <path d="m231.950003,646.939999c-2.12,-1.56 -6.53,0.35 -6.92,-2.15a6.39,6.39 0 0 0 2.32,-1.89c0,-1.15 1.15,-1 1.15,-1.93l-0.95,-3.08c0.19,0 0.37,-0.17 0.56,-0.39l-0.19,-0.15c0.19,-0.61 0.78,0.37 1.15,0.74c-0.18,0.21 0.58,1.36 1.34,1.36c1.93,-0.78 3.84,-1.73 6,-1.56c1.52,1 1.71,2.5 1.91,4.06c-1.17,0.74 0.19,2.49 -0.78,3.62l-5.56,1.37l-0.03,0z" class="cls-3" id="path2313"/>
  <path d="m239.610003,681.239999a9.08,9.08 0 0 0 -0.19,5.54c-0.57,0.58 -0.18,1.34 -0.94,1.34l-3.66,-1.89c-4,0.35 -5,5.73 -7.84,6.12c-1.56,-1.17 0.76,-3.66 0.57,-5.77l0.19,0c0.37,-1.71 -1.15,-3.82 0.57,-5.34l3.25,0.37c2.3,-1.52 4,-3.25 4,-6.14l4,5.77l0.05,0z" class="cls-3" id="path2317"/>
  <path d="m226.400003,667.049999c-2.13,0.37 -4.8,1.91 -7.1,0.37c-2.69,-0.56 0.37,-3.64 -2.1,-4c-2.32,-0.59 -5,1.34 -6.9,-0.22c1.13,-1.91 5.73,-0.74 5.55,-3.43c0.57,-1 2.11,-3.25 3.82,-4c3.08,-0.57 2.3,3.25 4.6,3.84l2.13,7.48l0,-0.04z" class="cls-3" id="path2319"/>
  <path d="m237.060003,447.999999c0.08,-0.11 0.27,-0.43 0.21,-0.54c-0.07,-0.28 -0.48,-0.47 -0.68,-0.61s-0.49,-0.37 -0.74,-0.54a3.53,3.53 0 0 1 -0.56,-0.69c-0.22,-0.23 -0.51,-0.38 -0.71,-0.6a13.6,13.6 0 0 0 -1.42,-1.31c-0.41,-0.31 -0.49,-0.35 -0.88,-0.19a2.2,2.2 0 0 0 -0.91,0.6c-0.45,0.55 -1,1 -1.42,1.58s-0.73,1 -1.54,1.13s-1.56,0.2 -2.36,0.28a9,9 0 0 0 -2.38,0.46c-0.37,0.16 -1,0.43 -0.49,0.78c0.33,0.26 1.09,0.34 1.07,-0.29c0.65,0.33 0.22,0.64 0,1c0.65,0.41 1.35,0.59 1.72,1.33a3.44,3.44 0 0 1 0.21,1a3.89,3.89 0 0 1 0,1.08a5.92,5.92 0 0 0 0,2.22a1.57,1.57 0 0 0 1.45,1.21a0.9,0.9 0 0 0 0.85,-0.24a1.33,1.33 0 0 1 0.9,-0.5a9.69,9.69 0 0 0 1.77,-1c0.59,-0.27 1.21,-0.82 1.84,-0.85c0.37,0 2.24,0.37 2.08,-0.28c0,-0.13 -0.25,-0.23 -0.33,-0.33a1.42,1.42 0 0 1 -0.29,-0.54a1.76,1.76 0 0 1 0.08,-1.23c0.05,-0.14 0.21,-0.24 0.29,-0.35a2.26,2.26 0 0 1 0.35,-0.61c0.29,-0.35 0.76,-0.25 1.05,-0.52a5.78,5.78 0 0 0 0.84,-1.41l0,-0.04z" class="cls-3" id="path2433"/>
 </g>
</svg>