<?xml version="1.0" standalone="no"?>
<!DOCTYPE svg PUBLIC "-//W3C//DTD SVG 20010904//EN"
 "http://www.w3.org/TR/2001/REC-SVG-20010904/DTD/svg10.dtd">
<svg version="1.0" xmlns="http://www.w3.org/2000/svg"
 width="700.000000pt" height="700.000000pt" viewBox="0 0 700.000000 700.000000"
 preserveAspectRatio="xMidYMid meet">
<metadata>
Created by potrace 1.11, written by Peter Selinger 2001-2013
</metadata>
<g transform="translate(0.000000,700.000000) scale(0.100000,-0.100000)"
fill="#000000" stroke="none">
<path d="M1301 6984 c-41 -19 -1141 -1116 -1163 -1159 -19 -39 -22 -106 -8
-153 10 -30 470 -495 2393 -2419 l2380 -2381 31 29 c17 16 35 29 39 29 5 0 5
5 1 12 -5 7 -3 8 6 3 7 -4 15 -3 19 1 17 26 144 61 206 59 126 -6 299 -96 470
-245 33 -29 100 -91 148 -138 49 -48 92 -82 95 -77 4 6 42 44 85 85 l77 74
200 -199 c110 -110 203 -201 207 -202 5 -2 80 22 168 53 88 30 202 70 253 87
l94 32 -155 150 c-263 254 -427 415 -427 419 0 2 36 39 81 83 l81 80 -95 99
c-192 201 -284 325 -339 461 -42 105 -44 212 -4 298 29 65 30 69 14 59 -7 -4
-8 -3 -4 5 4 6 11 9 15 6 5 -2 23 16 40 40 l32 45 -2363 2363 c-1300 1300
-2377 2373 -2395 2385 -42 29 -135 37 -182 16z"/>
<path d="M62 220 c-15 -9 -33 -24 -40 -32 -22 -28 -26 -82 -7 -121 34 -72 -59
-67 1348 -67 765 0 1275 4 1290 9 88 34 99 156 20 208 -26 17 -103 18 -1305
19 -1178 1 -1280 -1 -1306 -16z"/>
<path d="M3035 224 c-44 -22 -58 -44 -63 -93 -5 -58 16 -97 65 -117 47 -20
532 -20 571 0 62 32 85 100 56 158 -31 61 -42 63 -336 64 -205 1 -273 -1 -293
-12z"/>
<path d="M3981 222 c-85 -41 -85 -164 0 -208 41 -20 1712 -21 1762 0 44 18 67
56 67 111 0 37 -5 50 -31 75 -18 16 -37 31 -43 32 -6 1 -397 2 -868 3 -728 1
-862 0 -887 -13z"/>
</g>
</svg>
